<?xml version="1.0" encoding="utf-8" standalone="no"?>
<!DOCTYPE svg PUBLIC "-//W3C//DTD SVG 1.1//EN"
  "http://www.w3.org/Graphics/SVG/1.1/DTD/svg11.dtd">
<svg xmlns:xlink="http://www.w3.org/1999/xlink" width="711.235107pt" height="278.817187pt" viewBox="0 0 711.235107 278.817187" xmlns="http://www.w3.org/2000/svg" version="1.1">
 <metadata>
  <rdf:RDF xmlns:dc="http://purl.org/dc/elements/1.1/" xmlns:cc="http://creativecommons.org/ns#" xmlns:rdf="http://www.w3.org/1999/02/22-rdf-syntax-ns#">
   <cc:Work>
    <dc:type rdf:resource="http://purl.org/dc/dcmitype/StillImage"/>
    <dc:date>2026-07-17T20:49:02.245563</dc:date>
    <dc:format>image/svg+xml</dc:format>
    <dc:creator>
     <cc:Agent>
      <dc:title>Matplotlib v3.8.4, https://matplotlib.org/</dc:title>
     </cc:Agent>
    </dc:creator>
   </cc:Work>
  </rdf:RDF>
 </metadata>
 <defs>
  <style type="text/css">*{stroke-linejoin: round; stroke-linecap: butt}</style>
 </defs>
 <g id="figure_1">
  <g id="patch_1">
   <path d="M 0 278.817187 
L 711.235107 278.817187 
L 711.235107 0 
L 0 0 
z
" style="fill: #ffffff"/>
  </g>
  <g id="axes_1">
   <g id="patch_2">
    <path d="M 45.459844 246.707969 
L 593.732381 246.707969 
L 593.732381 19.751719 
L 45.459844 19.751719 
z
" style="fill: #ffffff"/>
   </g>
   <g id="matplotlib.axis_1">
    <g id="xtick_1">
     <g id="line2d_1">
      <defs>
       <path id="m48d0e2f95e" d="M 0 0 
L 0 3.5 
" style="stroke: #000000; stroke-width: 0.8"/>
      </defs>
      <g>
       <use xlink:href="#m48d0e2f95e" x="69.767871" y="246.707969" style="stroke: #000000; stroke-width: 0.8"/>
      </g>
     </g>
     <g id="text_1">
      <text style="font: 7px 'Arial', 'Helvetica', 'DejaVu Sans', 'Liberation Sans', 'SimHei', 'Microsoft YaHei', sans-serif; text-anchor: middle" x="69.767871" y="258.718437" transform="rotate(-0 69.767871 258.718437)">1950</text>
     </g>
    </g>
    <g id="xtick_2">
     <g id="line2d_2">
      <g>
       <use xlink:href="#m48d0e2f95e" x="145.310077" y="246.707969" style="stroke: #000000; stroke-width: 0.8"/>
      </g>
     </g>
     <g id="text_2">
      <text style="font: 7px 'Arial', 'Helvetica', 'DejaVu Sans', 'Liberation Sans', 'SimHei', 'Microsoft YaHei', sans-serif; text-anchor: middle" x="145.310077" y="258.718437" transform="rotate(-0 145.310077 258.718437)">2000</text>
     </g>
    </g>
    <g id="xtick_3">
     <g id="line2d_3">
      <g>
       <use xlink:href="#m48d0e2f95e" x="220.852283" y="246.707969" style="stroke: #000000; stroke-width: 0.8"/>
      </g>
     </g>
     <g id="text_3">
      <text style="font: 7px 'Arial', 'Helvetica', 'DejaVu Sans', 'Liberation Sans', 'SimHei', 'Microsoft YaHei', sans-serif; text-anchor: middle" x="220.852283" y="258.718437" transform="rotate(-0 220.852283 258.718437)">2050</text>
     </g>
    </g>
    <g id="xtick_4">
     <g id="line2d_4">
      <g>
       <use xlink:href="#m48d0e2f95e" x="296.394489" y="246.707969" style="stroke: #000000; stroke-width: 0.8"/>
      </g>
     </g>
     <g id="text_4">
      <text style="font: 7px 'Arial', 'Helvetica', 'DejaVu Sans', 'Liberation Sans', 'SimHei', 'Microsoft YaHei', sans-serif; text-anchor: middle" x="296.394489" y="258.718437" transform="rotate(-0 296.394489 258.718437)">2100</text>
     </g>
    </g>
    <g id="xtick_5">
     <g id="line2d_5">
      <g>
       <use xlink:href="#m48d0e2f95e" x="371.936696" y="246.707969" style="stroke: #000000; stroke-width: 0.8"/>
      </g>
     </g>
     <g id="text_5">
      <text style="font: 7px 'Arial', 'Helvetica', 'DejaVu Sans', 'Liberation Sans', 'SimHei', 'Microsoft YaHei', sans-serif; text-anchor: middle" x="371.936696" y="258.718437" transform="rotate(-0 371.936696 258.718437)">2150</text>
     </g>
    </g>
    <g id="xtick_6">
     <g id="line2d_6">
      <g>
       <use xlink:href="#m48d0e2f95e" x="447.478902" y="246.707969" style="stroke: #000000; stroke-width: 0.8"/>
      </g>
     </g>
     <g id="text_6">
      <text style="font: 7px 'Arial', 'Helvetica', 'DejaVu Sans', 'Liberation Sans', 'SimHei', 'Microsoft YaHei', sans-serif; text-anchor: middle" x="447.478902" y="258.718437" transform="rotate(-0 447.478902 258.718437)">2200</text>
     </g>
    </g>
    <g id="xtick_7">
     <g id="line2d_7">
      <g>
       <use xlink:href="#m48d0e2f95e" x="523.021108" y="246.707969" style="stroke: #000000; stroke-width: 0.8"/>
      </g>
     </g>
     <g id="text_7">
      <text style="font: 7px 'Arial', 'Helvetica', 'DejaVu Sans', 'Liberation Sans', 'SimHei', 'Microsoft YaHei', sans-serif; text-anchor: middle" x="523.021108" y="258.718437" transform="rotate(-0 523.021108 258.718437)">2250</text>
     </g>
    </g>
    <g id="text_8">
     <text style="font: 8px 'Arial', 'Helvetica', 'DejaVu Sans', 'Liberation Sans', 'SimHei', 'Microsoft YaHei', sans-serif; text-anchor: middle" x="319.596113" y="269.933437" transform="rotate(-0 319.596113 269.933437)">Depth (m)</text>
    </g>
   </g>
   <g id="matplotlib.axis_2">
    <g id="ytick_1">
     <g id="line2d_8">
      <defs>
       <path id="m83143f2c80" d="M 0 0 
L -3.5 0 
" style="stroke: #000000; stroke-width: 0.8"/>
      </defs>
      <g>
       <use xlink:href="#m83143f2c80" x="45.459844" y="245.951691" style="stroke: #000000; stroke-width: 0.8"/>
      </g>
     </g>
     <g id="text_9">
      <text style="font: 7px 'Arial', 'Helvetica', 'DejaVu Sans', 'Liberation Sans', 'SimHei', 'Microsoft YaHei', sans-serif; text-anchor: end" x="38.459844" y="248.456926" transform="rotate(-0 38.459844 248.456926)">-0.025</text>
     </g>
    </g>
    <g id="ytick_2">
     <g id="line2d_9">
      <g>
       <use xlink:href="#m83143f2c80" x="45.459844" y="217.625278" style="stroke: #000000; stroke-width: 0.8"/>
      </g>
     </g>
     <g id="text_10">
      <text style="font: 7px 'Arial', 'Helvetica', 'DejaVu Sans', 'Liberation Sans', 'SimHei', 'Microsoft YaHei', sans-serif; text-anchor: end" x="38.459844" y="220.130512" transform="rotate(-0 38.459844 220.130512)">0.000</text>
     </g>
    </g>
    <g id="ytick_3">
     <g id="line2d_10">
      <g>
       <use xlink:href="#m83143f2c80" x="45.459844" y="189.298865" style="stroke: #000000; stroke-width: 0.8"/>
      </g>
     </g>
     <g id="text_11">
      <text style="font: 7px 'Arial', 'Helvetica', 'DejaVu Sans', 'Liberation Sans', 'SimHei', 'Microsoft YaHei', sans-serif; text-anchor: end" x="38.459844" y="191.804099" transform="rotate(-0 38.459844 191.804099)">0.025</text>
     </g>
    </g>
    <g id="ytick_4">
     <g id="line2d_11">
      <g>
       <use xlink:href="#m83143f2c80" x="45.459844" y="160.972452" style="stroke: #000000; stroke-width: 0.8"/>
      </g>
     </g>
     <g id="text_12">
      <text style="font: 7px 'Arial', 'Helvetica', 'DejaVu Sans', 'Liberation Sans', 'SimHei', 'Microsoft YaHei', sans-serif; text-anchor: end" x="38.459844" y="163.477686" transform="rotate(-0 38.459844 163.477686)">0.050</text>
     </g>
    </g>
    <g id="ytick_5">
     <g id="line2d_12">
      <g>
       <use xlink:href="#m83143f2c80" x="45.459844" y="132.646039" style="stroke: #000000; stroke-width: 0.8"/>
      </g>
     </g>
     <g id="text_13">
      <text style="font: 7px 'Arial', 'Helvetica', 'DejaVu Sans', 'Liberation Sans', 'SimHei', 'Microsoft YaHei', sans-serif; text-anchor: end" x="38.459844" y="135.151273" transform="rotate(-0 38.459844 135.151273)">0.075</text>
     </g>
    </g>
    <g id="ytick_6">
     <g id="line2d_13">
      <g>
       <use xlink:href="#m83143f2c80" x="45.459844" y="104.319626" style="stroke: #000000; stroke-width: 0.8"/>
      </g>
     </g>
     <g id="text_14">
      <text style="font: 7px 'Arial', 'Helvetica', 'DejaVu Sans', 'Liberation Sans', 'SimHei', 'Microsoft YaHei', sans-serif; text-anchor: end" x="38.459844" y="106.82486" transform="rotate(-0 38.459844 106.82486)">0.100</text>
     </g>
    </g>
    <g id="ytick_7">
     <g id="line2d_14">
      <g>
       <use xlink:href="#m83143f2c80" x="45.459844" y="75.993212" style="stroke: #000000; stroke-width: 0.8"/>
      </g>
     </g>
     <g id="text_15">
      <text style="font: 7px 'Arial', 'Helvetica', 'DejaVu Sans', 'Liberation Sans', 'SimHei', 'Microsoft YaHei', sans-serif; text-anchor: end" x="38.459844" y="78.498447" transform="rotate(-0 38.459844 78.498447)">0.125</text>
     </g>
    </g>
    <g id="ytick_8">
     <g id="line2d_15">
      <g>
       <use xlink:href="#m83143f2c80" x="45.459844" y="47.666799" style="stroke: #000000; stroke-width: 0.8"/>
      </g>
     </g>
     <g id="text_16">
      <text style="font: 7px 'Arial', 'Helvetica', 'DejaVu Sans', 'Liberation Sans', 'SimHei', 'Microsoft YaHei', sans-serif; text-anchor: end" x="38.459844" y="50.172034" transform="rotate(-0 38.459844 50.172034)">0.150</text>
     </g>
    </g>
    <g id="text_17">
     <text style="font: 8px 'Arial', 'Helvetica', 'DejaVu Sans', 'Liberation Sans', 'SimHei', 'Microsoft YaHei', sans-serif; text-anchor: middle" x="13.02375" y="133.229844" transform="rotate(-90 13.02375 133.229844)">Cepstrum Amplitude</text>
    </g>
   </g>
   <g id="line2d_16">
    <path d="M 70.381323 219.597631 
L 71.476772 200.232905 
L 72.572222 220.781812 
L 73.667672 200.684099 
L 74.763121 221.54418 
L 75.858571 201.268143 
L 76.95402 222.3531 
L 78.04947 200.866964 
L 79.14492 221.121257 
L 80.240369 198.283506 
L 81.335819 218.718473 
L 82.431269 196.553956 
L 83.526718 218.467345 
L 84.622168 197.365727 
L 85.717617 219.555026 
L 86.813067 198.384446 
L 87.908517 220.030416 
L 89.003966 199.068948 
L 90.099416 220.445772 
L 91.194866 199.87624 
L 92.290315 220.160878 
L 93.385765 198.970499 
L 94.481214 217.943437 
L 95.576664 197.192915 
L 96.672114 216.84017 
L 97.767563 197.881826 
L 98.863013 218.257758 
L 99.958463 199.155205 
L 101.053912 218.635311 
L 102.149362 198.465086 
L 103.244811 217.951229 
L 104.340261 198.173699 
L 105.435711 218.701627 
L 106.53116 198.917289 
L 107.62661 219.173234 
L 108.72206 198.437931 
L 109.817509 219.048498 
L 110.912959 199.131861 
L 112.008408 221.174056 
L 113.103858 201.338398 
L 114.199308 221.949789 
L 115.294757 199.473255 
L 116.390207 218.009167 
L 117.485657 195.785875 
L 118.581106 216.557205 
L 119.676556 197.639682 
L 120.772005 220.070208 
L 121.867455 200.401009 
L 122.962905 220.066075 
L 124.058354 198.071788 
L 125.153804 217.261843 
L 126.249254 196.83676 
L 127.344703 217.299641 
L 128.440153 196.005413 
L 129.535602 213.059019 
L 130.631052 188.50953 
L 131.726502 205.824653 
L 132.821951 186.800659 
L 133.917401 212.277219 
L 135.012851 198.656457 
L 136.1083 222.136362 
L 137.20375 199.053772 
L 138.2992 211.547717 
L 139.394649 183.516764 
L 140.490099 201.48471 
L 141.585548 185.578605 
L 142.680998 212.946823 
L 143.776448 194.244362 
L 144.871897 203.584829 
L 145.967347 162.762238 
L 147.062797 170.741978 
L 148.158246 163.751578 
L 149.253696 220.501974 
L 150.349145 217.427725 
L 151.444595 166.83713 
L 152.540045 30.067912 
L 153.635494 43.328873 
L 154.730944 93.275343 
L 155.826394 169.958921 
L 156.921843 162.064924 
L 158.017293 176.66883 
L 159.112742 138.294004 
L 160.208192 157.186193 
L 161.303642 122.103264 
L 162.399091 156.716432 
L 163.494541 119.959672 
L 164.589991 140.681706 
L 165.68544 105.353569 
L 166.78089 142.796222 
L 167.876339 137.822638 
L 168.971789 196.666797 
L 170.067239 196.125056 
L 171.162688 236.391776 
L 172.258138 207.10342 
L 173.353588 221.556923 
L 174.449037 180.881965 
L 175.544487 199.837302 
L 176.639936 172.711522 
L 177.735386 205.381986 
L 178.830836 185.784829 
L 179.926285 218.260003 
L 181.021735 196.250467 
L 182.117185 225.07847 
L 183.212634 202.054156 
L 184.308084 228.744287 
L 185.403533 203.656426 
L 186.498983 225.644662 
L 187.594433 198.421974 
L 188.689882 218.081303 
L 189.785332 195.400117 
L 190.880782 218.865927 
L 191.976231 201.649435 
L 193.071681 225.177995 
L 194.16713 207.150273 
L 195.26258 225.945884 
L 196.35803 206.241546 
L 197.453479 222.80662 
L 198.548929 205.051263 
L 199.644379 221.499912 
L 200.739828 205.80526 
L 201.835278 220.869885 
L 202.930727 206.851506 
L 204.026177 221.409035 
L 205.121627 209.114798 
L 206.217076 223.410502 
L 207.312526 211.323213 
L 208.407976 223.396563 
L 209.503425 210.270338 
L 210.598875 220.778823 
L 211.694324 208.653577 
L 212.789774 219.793456 
L 213.885224 209.293993 
L 214.980673 220.328083 
L 216.076123 209.782265 
L 217.171573 220.401305 
L 218.267022 208.884052 
L 219.362472 220.180302 
L 220.457921 208.692837 
L 221.553371 220.577715 
L 222.648821 208.45867 
L 223.74427 220.644946 
L 224.83972 207.918644 
L 225.93517 221.277989 
L 227.030619 208.52701 
L 228.126069 223.123087 
L 229.221518 209.465553 
L 230.316968 223.978696 
L 231.412418 208.742369 
L 232.507867 223.581244 
L 233.603317 208.244276 
L 234.698767 224.295204 
L 235.794216 208.789788 
L 236.889666 224.905731 
L 237.985115 208.42146 
L 239.080565 224.485574 
L 240.176015 208.195592 
L 241.271464 225.173141 
L 242.366914 208.230096 
L 243.462364 224.998103 
L 244.557813 206.556442 
L 245.653263 222.725839 
L 246.748712 203.879175 
L 247.844162 221.678454 
L 248.939612 203.830231 
L 250.035061 222.976958 
L 251.130511 204.448486 
L 252.225961 222.687364 
L 253.32141 203.263235 
L 254.41686 221.927252 
L 255.512309 203.198017 
L 256.607759 222.50142 
L 257.703209 202.660836 
L 258.798658 220.046091 
L 259.894108 198.001126 
L 260.989558 215.24643 
L 262.085007 194.645336 
L 263.180457 214.705072 
L 264.275906 195.656119 
L 265.371356 211.526916 
L 266.466806 184.450183 
L 267.562255 204.025392 
L 268.657705 180.193822 
L 269.753155 201.75564 
L 270.848604 175.799257 
L 271.944054 193.577376 
L 273.039503 170.381914 
L 274.134953 186.853242 
L 275.230403 170.417429 
L 276.325852 189.302939 
L 277.421302 171.342631 
L 278.516752 189.411486 
L 279.612201 167.530021 
L 280.707651 186.654063 
L 281.8031 168.906071 
L 282.89855 190.481189 
L 283.994 173.601236 
L 285.089449 195.19175 
L 286.184899 178.315945 
L 287.280349 197.72904 
L 288.375798 177.736382 
L 289.471248 193.861889 
L 290.566697 172.863889 
L 291.662147 190.412749 
L 292.757597 174.169147 
L 293.853046 197.906825 
L 294.948496 187.527542 
L 296.043946 213.363338 
L 297.139395 201.019953 
L 298.234845 220.834503 
L 299.330294 201.696224 
L 300.425744 215.879115 
L 301.521194 194.938124 
L 302.616643 210.870399 
L 303.712093 193.093805 
L 304.807543 212.600347 
L 305.902992 198.156024 
L 306.998442 218.034435 
L 308.093891 202.921652 
L 309.189341 221.28681 
L 310.284791 204.803733 
L 311.38024 221.379431 
L 312.47569 203.087612 
L 313.57114 217.742082 
L 314.666589 199.009594 
L 315.762039 214.642353 
L 316.857488 198.373579 
L 317.952938 216.704179 
L 319.048388 202.451831 
L 320.143837 221.069346 
L 321.239287 205.666627 
L 322.334737 222.187806 
L 323.430186 205.098994 
L 324.525636 220.511393 
L 325.621085 203.080472 
L 326.716535 218.450995 
L 327.811985 202.704746 
L 328.907434 219.599282 
L 330.002884 203.777026 
L 331.098334 221.599867 
L 332.193783 206.150635 
L 333.289233 223.715439 
L 334.384682 207.021132 
L 335.480132 223.131352 
L 336.575582 205.094383 
L 337.671031 220.574776 
L 338.766481 202.902922 
L 339.861931 219.670276 
L 340.95738 203.340194 
L 342.05283 221.075321 
L 343.148279 205.207305 
L 344.243729 223.057548 
L 345.339179 206.566003 
L 346.434628 223.330848 
L 347.530078 206.806123 
L 348.625528 223.747555 
L 349.720977 205.90097 
L 350.816427 222.438607 
L 351.911876 204.843129 
L 353.007326 222.170909 
L 354.102776 205.067435 
L 355.198225 222.808932 
L 356.293675 205.566383 
L 357.389125 222.836497 
L 358.484574 204.913588 
L 359.580024 221.620647 
L 360.675473 203.664433 
L 361.770923 220.828843 
L 362.866373 203.344418 
L 363.961822 220.968143 
L 365.057272 203.657642 
L 366.152722 221.334755 
L 367.248171 203.916651 
L 368.343621 221.421219 
L 369.43907 203.934835 
L 370.53452 221.108156 
L 371.62997 203.124309 
L 372.725419 220.29767 
L 373.820869 202.361553 
L 374.916319 219.817307 
L 376.011768 202.747309 
L 377.107218 220.926506 
L 378.202667 203.956145 
L 379.298117 222.041783 
L 380.393567 204.506442 
L 381.489016 221.3744 
L 382.584466 202.907844 
L 383.679916 219.889369 
L 384.775365 202.007674 
L 385.870815 219.312837 
L 386.966264 197.315975 
L 388.061714 214.883866 
L 389.157164 194.671762 
L 390.252613 212.946552 
L 391.348063 192.154501 
L 392.443513 210.08474 
L 393.538962 189.219368 
L 394.634412 206.493482 
L 395.729861 186.428487 
L 396.825311 205.482682 
L 397.920761 185.927414 
L 399.01621 205.138454 
L 400.11166 185.257315 
L 401.20711 204.871184 
L 402.302559 185.41476 
L 403.398009 206.843999 
L 404.493458 188.222027 
L 405.588908 208.868528 
L 406.684358 189.126111 
L 407.779807 210.091954 
L 408.875257 190.665962 
L 409.970707 211.285424 
L 411.066156 191.300328 
L 412.161606 211.247123 
L 413.257055 191.601589 
L 414.352505 212.371617 
L 415.447955 194.44796 
L 416.543404 217.000017 
L 417.638854 200.547436 
L 418.734304 223.147936 
L 419.829753 205.619696 
L 420.925203 225.943593 
L 422.020652 206.061431 
L 423.116102 224.560959 
L 424.211552 204.38437 
L 425.307001 223.53954 
L 426.402451 204.666442 
L 427.497901 224.735492 
L 428.59335 206.339708 
L 429.6888 226.008376 
L 430.784249 207.073999 
L 431.879699 226.134293 
L 432.975149 206.9922 
L 434.070598 225.851568 
L 435.166048 206.820692 
L 436.261498 225.592555 
L 437.356947 206.52446 
L 438.452397 225.227694 
L 439.547846 206.358116 
L 440.643296 225.35386 
L 441.738746 206.867304 
L 442.834195 225.872803 
L 443.929645 207.216729 
L 445.025095 225.77736 
L 446.120544 206.832978 
L 447.215994 225.333705 
L 448.311443 206.568217 
L 449.406893 225.293902 
L 450.502343 206.719576 
L 451.597792 225.553645 
L 452.693242 207.041277 
L 453.788692 225.813137 
L 454.884141 207.377132 
L 455.979591 226.495532 
L 457.07504 208.279868 
L 458.17049 227.317737 
L 459.26594 208.8674 
L 460.361389 227.665314 
L 461.456839 209.051476 
L 462.552289 227.848968 
L 463.647738 209.160159 
L 464.743188 227.927909 
L 465.838637 209.063078 
L 466.934087 227.839269 
L 468.029537 209.058931 
L 469.124986 228.113529 
L 470.220436 209.40945 
L 471.315886 228.390342 
L 472.411335 209.222696 
L 473.506785 227.816689 
L 474.602234 208.443352 
L 475.697684 227.101504 
L 476.793134 207.866249 
L 477.888583 226.755064 
L 478.984033 207.655393 
L 480.079483 226.716491 
L 481.174932 207.670524 
L 482.270382 226.71591 
L 483.365831 207.619019 
L 484.461281 226.587981 
L 485.556731 207.405377 
L 486.65218 226.070687 
L 487.74763 206.637448 
L 488.84308 225.19325 
L 489.938529 205.892634 
L 491.033979 224.770523 
L 492.129428 205.926947 
L 493.224878 224.864975 
L 494.320328 205.989452 
L 495.415777 224.765224 
L 496.511227 205.83259 
L 497.606677 224.716145 
L 498.702126 206.154319 
L 499.797576 225.179285 
L 500.893025 206.555516 
L 501.988475 225.268702 
L 503.083925 206.417087 
L 504.179374 224.908128 
L 505.274824 206.141738 
L 506.370274 224.774202 
L 507.465723 204.482919 
L 508.561173 222.217383 
L 509.656623 201.70033 
L 510.752072 219.072648 
L 511.847522 198.27805 
L 512.942971 215.451957 
L 514.038421 194.842485 
L 515.133871 213.130024 
L 516.22932 193.729939 
L 517.32477 212.754702 
L 518.42022 194.13242 
L 519.515669 213.852306 
L 520.611119 195.536609 
L 521.706568 215.767138 
L 522.802018 199.264019 
L 523.897468 219.523301 
L 524.992917 201.69202 
L 526.088367 221.18508 
L 527.183817 203.774657 
L 528.279266 224.11478 
L 529.374716 206.781092 
L 530.470165 226.263884 
L 531.565615 207.480178 
L 532.661065 225.622938 
L 533.756514 206.251535 
L 534.851964 224.788986 
L 535.947414 206.498264 
L 537.042863 226.296576 
L 538.138313 208.882394 
L 539.233762 228.848052 
L 540.329212 210.894229 
L 541.424662 229.778204 
L 542.520111 210.737576 
L 543.615561 228.628798 
L 544.711011 209.21568 
L 545.80646 227.35644 
L 546.90191 208.799992 
L 547.997359 227.98096 
L 549.092809 210.286338 
L 550.188259 229.738865 
L 551.283708 211.733434 
L 552.379158 230.446538 
L 553.474608 211.718831 
L 554.570057 230.006196 
L 555.665507 211.442027 
L 556.760956 230.0547 
L 557.856406 211.852149 
L 558.951856 230.539582 
L 560.047305 212.240341 
L 561.142755 230.699248 
L 562.238205 212.448619 
L 563.333654 231.013565 
L 564.429104 212.962428 
L 565.524553 231.438286 
L 566.620003 213.029377 
L 567.715453 230.986341 
L 568.810902 212.374775 
L 568.810902 212.374775 
" clip-path="url(#p120b7acbb0)" style="fill: none; stroke: #000000; stroke-width: 1.2; stroke-linecap: square"/>
   </g>
   <g id="line2d_17">
    <defs>
     <path id="mdf3dcc230e" d="M 0 3 
C 0.795609 3 1.55874 2.683901 2.12132 2.12132 
C 2.683901 1.55874 3 0.795609 3 0 
C 3 -0.795609 2.683901 -1.55874 2.12132 -2.12132 
C 1.55874 -2.683901 0.795609 -3 0 -3 
C -0.795609 -3 -1.55874 -2.683901 -2.12132 -2.12132 
C -2.683901 -1.55874 -3 -0.795609 -3 0 
C -3 0.795609 -2.683901 1.55874 -2.12132 2.12132 
C -1.55874 2.683901 -0.795609 3 0 3 
z
" style="stroke: #0d0887"/>
    </defs>
    <g clip-path="url(#p120b7acbb0)">
     <use xlink:href="#mdf3dcc230e" x="152.540045" y="30.067912" style="fill: #0d0887; stroke: #0d0887"/>
    </g>
   </g>
   <g id="line2d_18">
    <path d="M 144.871897 246.707969 
L 144.871897 19.751719 
" clip-path="url(#p120b7acbb0)" style="fill: none; stroke-dasharray: 5.55,2.4; stroke-dashoffset: 0; stroke: #0d0887; stroke-opacity: 0.4; stroke-width: 1.5"/>
   </g>
   <g id="line2d_19">
    <defs>
     <path id="m9cdf04dbbf" d="M 0 3 
C 0.795609 3 1.55874 2.683901 2.12132 2.12132 
C 2.683901 1.55874 3 0.795609 3 0 
C 3 -0.795609 2.683901 -1.55874 2.12132 -2.12132 
C 1.55874 -2.683901 0.795609 -3 0 -3 
C -0.795609 -3 -1.55874 -2.683901 -2.12132 -2.12132 
C -2.683901 -1.55874 -3 -0.795609 -3 0 
C -3 0.795609 -2.683901 1.55874 -2.12132 2.12132 
C -1.55874 2.683901 -0.795609 3 0 3 
z
" style="stroke: #bf3984"/>
    </defs>
    <g clip-path="url(#p120b7acbb0)">
     <use xlink:href="#m9cdf04dbbf" x="279.612201" y="167.530021" style="fill: #bf3984; stroke: #bf3984"/>
    </g>
   </g>
   <g id="line2d_20">
    <path d="M 265.371356 246.707969 
L 265.371356 19.751719 
" clip-path="url(#p120b7acbb0)" style="fill: none; stroke-dasharray: 5.55,2.4; stroke-dashoffset: 0; stroke: #bf3984; stroke-opacity: 0.4; stroke-width: 1.5"/>
   </g>
   <g id="line2d_21">
    <defs>
     <path id="mfddcb3dd1d" d="M 0 3 
C 0.795609 3 1.55874 2.683901 2.12132 2.12132 
C 2.683901 1.55874 3 0.795609 3 0 
C 3 -0.795609 2.683901 -1.55874 2.12132 -2.12132 
C 1.55874 -2.683901 0.795609 -3 0 -3 
C -0.795609 -3 -1.55874 -2.683901 -2.12132 -2.12132 
C -2.683901 -1.55874 -3 -0.795609 -3 0 
C -3 0.795609 -2.683901 1.55874 -2.12132 2.12132 
C -1.55874 2.683901 -0.795609 3 0 3 
z
" style="stroke: #fcce25"/>
    </defs>
    <g clip-path="url(#p120b7acbb0)">
     <use xlink:href="#mfddcb3dd1d" x="400.11166" y="185.257315" style="fill: #fcce25; stroke: #fcce25"/>
    </g>
   </g>
   <g id="line2d_22">
    <path d="M 388.061714 246.707969 
L 388.061714 19.751719 
" clip-path="url(#p120b7acbb0)" style="fill: none; stroke-dasharray: 5.55,2.4; stroke-dashoffset: 0; stroke: #fcce25; stroke-opacity: 0.4; stroke-width: 1.5"/>
   </g>
   <g id="patch_3">
    <path d="M 45.459844 246.707969 
L 45.459844 19.751719 
" style="fill: none; stroke: #000000; stroke-linejoin: miter; stroke-linecap: square"/>
   </g>
   <g id="patch_4">
    <path d="M 45.459844 246.707969 
L 593.732381 246.707969 
" style="fill: none; stroke: #000000; stroke-linejoin: miter; stroke-linecap: square"/>
   </g>
   <g id="text_18">
    <!--  $\alpha$=1.000 -->
    <g style="fill: #0d0887" transform="translate(152.540045 28.291818)">
     <text>
      <tspan style="font: 700 9px 'Arial'" x="0 8.433105 13.688965 18.694336 21.194824 26.200195 31.205566" y="-0.53125"> =1.000</tspan>
      <tspan style="font: oblique 9px 'DejaVu Sans'" x="2.500488" y="-0.53125">α</tspan>
     </text>
    </g>
   </g>
   <g id="text_19">
    <!--  $\alpha$=0.267 -->
    <g style="fill: #bf3984" transform="translate(279.612201 165.753927)">
     <text>
      <tspan style="font: 700 9px 'Arial'" x="0 8.433105 13.688965 18.694336 21.194824 26.200195 31.205566" y="-0.53125"> =0.267</tspan>
      <tspan style="font: oblique 9px 'DejaVu Sans'" x="2.500488" y="-0.53125">α</tspan>
     </text>
    </g>
   </g>
   <g id="text_20">
    <!--  $\alpha$=0.173 -->
    <g style="fill: #fcce25" transform="translate(400.11166 183.481221)">
     <text>
      <tspan style="font: 700 9px 'Arial'" x="0 8.433105 13.688965 18.694336 21.194824 26.200195 31.205566" y="-0.53125"> =0.173</tspan>
      <tspan style="font: oblique 9px 'DejaVu Sans'" x="2.500488" y="-0.53125">α</tspan>
     </text>
    </g>
   </g>
   <g id="text_21">
    <text style="font: 9px 'Arial', 'Helvetica', 'DejaVu Sans', 'Liberation Sans', 'SimHei', 'Microsoft YaHei', sans-serif; text-anchor: middle" x="319.596113" y="13.751719" transform="rotate(-0 319.596113 13.751719)">Local Peak Extraction (2D) | Brun=on=e x1 2000 s= 80 n= 3</text>
   </g>
   <g id="legend_1">
    <g id="line2d_23">
     <path d="M 606.415107 29.975469 
L 614.415107 29.975469 
L 622.415107 29.975469 
" style="fill: none; stroke: #000000; stroke-width: 1.2; stroke-linecap: square"/>
    </g>
    <g id="text_22">
     <text style="font: 8px 'Arial', 'Helvetica', 'DejaVu Sans', 'Liberation Sans', 'SimHei', 'Microsoft YaHei', sans-serif; text-anchor: start" x="628.815107" y="32.775469" transform="rotate(-0 628.815107 32.775469)">2D Cepstrum Profile</text>
    </g>
    <g id="line2d_24">
     <g>
      <use xlink:href="#mdf3dcc230e" x="614.415107" y="41.389219" style="fill: #0d0887; stroke: #0d0887"/>
     </g>
    </g>
    <g id="text_23">
     <text style="font: 8px 'Arial', 'Helvetica', 'DejaVu Sans', 'Liberation Sans', 'SimHei', 'Microsoft YaHei', sans-serif; text-anchor: start" x="628.815107" y="44.189219" transform="rotate(-0 628.815107 44.189219)">Frac 1 (1999.7m)</text>
    </g>
    <g id="line2d_25">
     <g>
      <use xlink:href="#m9cdf04dbbf" x="614.415107" y="52.896719" style="fill: #bf3984; stroke: #bf3984"/>
     </g>
    </g>
    <g id="text_24">
     <text style="font: 8px 'Arial', 'Helvetica', 'DejaVu Sans', 'Liberation Sans', 'SimHei', 'Microsoft YaHei', sans-serif; text-anchor: start" x="628.815107" y="55.696719" transform="rotate(-0 628.815107 55.696719)">Frac 2 (2079.5m)</text>
    </g>
    <g id="line2d_26">
     <g>
      <use xlink:href="#mfddcb3dd1d" x="614.415107" y="64.404219" style="fill: #fcce25; stroke: #fcce25"/>
     </g>
    </g>
    <g id="text_25">
     <text style="font: 8px 'Arial', 'Helvetica', 'DejaVu Sans', 'Liberation Sans', 'SimHei', 'Microsoft YaHei', sans-serif; text-anchor: start" x="628.815107" y="67.204219" transform="rotate(-0 628.815107 67.204219)">Frac 3 (2160.7m)</text>
    </g>
   </g>
  </g>
 </g>
 <defs>
  <clipPath id="p120b7acbb0">
   <rect x="45.459844" y="19.751719" width="548.272537" height="226.95625"/>
  </clipPath>
 </defs>
</svg>
