<?xml version="1.0" encoding="utf-8" standalone="no"?>
<!DOCTYPE svg PUBLIC "-//W3C//DTD SVG 1.1//EN"
  "http://www.w3.org/Graphics/SVG/1.1/DTD/svg11.dtd">
<svg xmlns:xlink="http://www.w3.org/1999/xlink" width="711.243pt" height="278.817187pt" viewBox="0 0 711.243 278.817187" xmlns="http://www.w3.org/2000/svg" version="1.1">
 <metadata>
  <rdf:RDF xmlns:dc="http://purl.org/dc/elements/1.1/" xmlns:cc="http://creativecommons.org/ns#" xmlns:rdf="http://www.w3.org/1999/02/22-rdf-syntax-ns#">
   <cc:Work>
    <dc:type rdf:resource="http://purl.org/dc/dcmitype/StillImage"/>
    <dc:date>2026-07-17T20:39:30.680078</dc:date>
    <dc:format>image/svg+xml</dc:format>
    <dc:creator>
     <cc:Agent>
      <dc:title>Matplotlib v3.8.4, https://matplotlib.org/</dc:title>
     </cc:Agent>
    </dc:creator>
   </cc:Work>
  </rdf:RDF>
 </metadata>
 <defs>
  <style type="text/css">*{stroke-linejoin: round; stroke-linecap: butt}</style>
 </defs>
 <g id="figure_1">
  <g id="patch_1">
   <path d="M 0 278.817187 
L 711.243 278.817187 
L 711.243 0 
L 0 0 
z
" style="fill: #ffffff"/>
  </g>
  <g id="axes_1">
   <g id="patch_2">
    <path d="M 35.34375 246.707969 
L 593.640037 246.707969 
L 593.640037 19.751719 
L 35.34375 19.751719 
z
" style="fill: #ffffff"/>
   </g>
   <g id="matplotlib.axis_1">
    <g id="xtick_1">
     <g id="line2d_1">
      <defs>
       <path id="mb2a69f97b5" d="M 0 0 
L 0 3.5 
" style="stroke: #000000; stroke-width: 0.8"/>
      </defs>
      <g>
       <use xlink:href="#mb2a69f97b5" x="59.85957" y="246.707969" style="stroke: #000000; stroke-width: 0.8"/>
      </g>
     </g>
     <g id="text_1">
      <text style="font: 7px 'Arial', 'Helvetica', 'DejaVu Sans', 'Liberation Sans', 'SimHei', 'Microsoft YaHei', sans-serif; text-anchor: middle" x="59.85957" y="258.718437" transform="rotate(-0 59.85957 258.718437)">4450</text>
     </g>
    </g>
    <g id="xtick_2">
     <g id="line2d_2">
      <g>
       <use xlink:href="#mb2a69f97b5" x="165.920485" y="246.707969" style="stroke: #000000; stroke-width: 0.8"/>
      </g>
     </g>
     <g id="text_2">
      <text style="font: 7px 'Arial', 'Helvetica', 'DejaVu Sans', 'Liberation Sans', 'SimHei', 'Microsoft YaHei', sans-serif; text-anchor: middle" x="165.920485" y="258.718437" transform="rotate(-0 165.920485 258.718437)">4500</text>
     </g>
    </g>
    <g id="xtick_3">
     <g id="line2d_3">
      <g>
       <use xlink:href="#mb2a69f97b5" x="271.9814" y="246.707969" style="stroke: #000000; stroke-width: 0.8"/>
      </g>
     </g>
     <g id="text_3">
      <text style="font: 7px 'Arial', 'Helvetica', 'DejaVu Sans', 'Liberation Sans', 'SimHei', 'Microsoft YaHei', sans-serif; text-anchor: middle" x="271.9814" y="258.718437" transform="rotate(-0 271.9814 258.718437)">4550</text>
     </g>
    </g>
    <g id="xtick_4">
     <g id="line2d_4">
      <g>
       <use xlink:href="#mb2a69f97b5" x="378.042314" y="246.707969" style="stroke: #000000; stroke-width: 0.8"/>
      </g>
     </g>
     <g id="text_4">
      <text style="font: 7px 'Arial', 'Helvetica', 'DejaVu Sans', 'Liberation Sans', 'SimHei', 'Microsoft YaHei', sans-serif; text-anchor: middle" x="378.042314" y="258.718437" transform="rotate(-0 378.042314 258.718437)">4600</text>
     </g>
    </g>
    <g id="xtick_5">
     <g id="line2d_5">
      <g>
       <use xlink:href="#mb2a69f97b5" x="484.103229" y="246.707969" style="stroke: #000000; stroke-width: 0.8"/>
      </g>
     </g>
     <g id="text_5">
      <text style="font: 7px 'Arial', 'Helvetica', 'DejaVu Sans', 'Liberation Sans', 'SimHei', 'Microsoft YaHei', sans-serif; text-anchor: middle" x="484.103229" y="258.718437" transform="rotate(-0 484.103229 258.718437)">4650</text>
     </g>
    </g>
    <g id="xtick_6">
     <g id="line2d_6">
      <g>
       <use xlink:href="#mb2a69f97b5" x="590.164143" y="246.707969" style="stroke: #000000; stroke-width: 0.8"/>
      </g>
     </g>
     <g id="text_6">
      <text style="font: 7px 'Arial', 'Helvetica', 'DejaVu Sans', 'Liberation Sans', 'SimHei', 'Microsoft YaHei', sans-serif; text-anchor: middle" x="590.164143" y="258.718437" transform="rotate(-0 590.164143 258.718437)">4700</text>
     </g>
    </g>
    <g id="text_7">
     <text style="font: 8px 'Arial', 'Helvetica', 'DejaVu Sans', 'Liberation Sans', 'SimHei', 'Microsoft YaHei', sans-serif; text-anchor: middle" x="314.491894" y="269.933437" transform="rotate(-0 314.491894 269.933437)">Depth (m)</text>
    </g>
   </g>
   <g id="matplotlib.axis_2">
    <g id="ytick_1">
     <g id="line2d_7">
      <defs>
       <path id="m4de6c25017" d="M 0 0 
L -3.5 0 
" style="stroke: #000000; stroke-width: 0.8"/>
      </defs>
      <g>
       <use xlink:href="#m4de6c25017" x="35.34375" y="230.383594" style="stroke: #000000; stroke-width: 0.8"/>
      </g>
     </g>
     <g id="text_8">
      <text style="font: 7px 'Arial', 'Helvetica', 'DejaVu Sans', 'Liberation Sans', 'SimHei', 'Microsoft YaHei', sans-serif; text-anchor: end" x="28.34375" y="232.888828" transform="rotate(-0 28.34375 232.888828)">0.0</text>
     </g>
    </g>
    <g id="ytick_2">
     <g id="line2d_8">
      <g>
       <use xlink:href="#m4de6c25017" x="35.34375" y="198.75172" style="stroke: #000000; stroke-width: 0.8"/>
      </g>
     </g>
     <g id="text_9">
      <text style="font: 7px 'Arial', 'Helvetica', 'DejaVu Sans', 'Liberation Sans', 'SimHei', 'Microsoft YaHei', sans-serif; text-anchor: end" x="28.34375" y="201.256955" transform="rotate(-0 28.34375 201.256955)">0.5</text>
     </g>
    </g>
    <g id="ytick_3">
     <g id="line2d_9">
      <g>
       <use xlink:href="#m4de6c25017" x="35.34375" y="167.119846" style="stroke: #000000; stroke-width: 0.8"/>
      </g>
     </g>
     <g id="text_10">
      <text style="font: 7px 'Arial', 'Helvetica', 'DejaVu Sans', 'Liberation Sans', 'SimHei', 'Microsoft YaHei', sans-serif; text-anchor: end" x="28.34375" y="169.625081" transform="rotate(-0 28.34375 169.625081)">1.0</text>
     </g>
    </g>
    <g id="ytick_4">
     <g id="line2d_10">
      <g>
       <use xlink:href="#m4de6c25017" x="35.34375" y="135.487972" style="stroke: #000000; stroke-width: 0.8"/>
      </g>
     </g>
     <g id="text_11">
      <text style="font: 7px 'Arial', 'Helvetica', 'DejaVu Sans', 'Liberation Sans', 'SimHei', 'Microsoft YaHei', sans-serif; text-anchor: end" x="28.34375" y="137.993207" transform="rotate(-0 28.34375 137.993207)">1.5</text>
     </g>
    </g>
    <g id="ytick_5">
     <g id="line2d_11">
      <g>
       <use xlink:href="#m4de6c25017" x="35.34375" y="103.856098" style="stroke: #000000; stroke-width: 0.8"/>
      </g>
     </g>
     <g id="text_12">
      <text style="font: 7px 'Arial', 'Helvetica', 'DejaVu Sans', 'Liberation Sans', 'SimHei', 'Microsoft YaHei', sans-serif; text-anchor: end" x="28.34375" y="106.361333" transform="rotate(-0 28.34375 106.361333)">2.0</text>
     </g>
    </g>
    <g id="ytick_6">
     <g id="line2d_12">
      <g>
       <use xlink:href="#m4de6c25017" x="35.34375" y="72.224224" style="stroke: #000000; stroke-width: 0.8"/>
      </g>
     </g>
     <g id="text_13">
      <text style="font: 7px 'Arial', 'Helvetica', 'DejaVu Sans', 'Liberation Sans', 'SimHei', 'Microsoft YaHei', sans-serif; text-anchor: end" x="28.34375" y="74.729459" transform="rotate(-0 28.34375 74.729459)">2.5</text>
     </g>
    </g>
    <g id="ytick_7">
     <g id="line2d_13">
      <g>
       <use xlink:href="#m4de6c25017" x="35.34375" y="40.59235" style="stroke: #000000; stroke-width: 0.8"/>
      </g>
     </g>
     <g id="text_14">
      <text style="font: 7px 'Arial', 'Helvetica', 'DejaVu Sans', 'Liberation Sans', 'SimHei', 'Microsoft YaHei', sans-serif; text-anchor: end" x="28.34375" y="43.097585" transform="rotate(-0 28.34375 43.097585)">3.0</text>
     </g>
    </g>
    <g id="text_15">
     <text style="font: 8px 'Arial', 'Helvetica', 'DejaVu Sans', 'Liberation Sans', 'SimHei', 'Microsoft YaHei', sans-serif; text-anchor: middle" x="13.02375" y="133.229844" transform="rotate(-90 13.02375 133.229844)">Cepstrum Amplitude</text>
    </g>
   </g>
   <g id="line2d_14">
    <path d="M 60.720854 231.146008 
L 62.25886 230.409227 
L 63.796867 230.748606 
L 65.334873 230.408735 
L 66.872879 230.915441 
L 68.410885 230.408699 
L 73.024904 230.471181 
L 74.562911 230.407742 
L 76.100917 230.644728 
L 77.638923 230.406234 
L 79.17693 195.187336 
L 80.714936 230.413429 
L 82.252942 230.848014 
L 83.790949 230.413837 
L 85.328955 231.80121 
L 86.866961 230.414243 
L 88.404967 231.617473 
L 89.942974 230.415573 
L 91.48098 231.360547 
L 93.018986 230.41593 
L 94.556993 231.398868 
L 96.094999 230.415777 
L 97.633005 231.356093 
L 99.171012 230.41493 
L 100.709018 231.492149 
L 102.247024 230.415102 
L 103.78503 231.888021 
L 105.323037 230.414683 
L 106.861043 231.634224 
L 108.399049 230.414125 
L 109.937056 231.538629 
L 111.475062 230.414692 
L 113.013068 231.150355 
L 114.551075 230.41524 
L 116.089081 231.031209 
L 117.627087 230.414874 
L 119.165093 231.202106 
L 120.7031 230.41288 
L 122.241106 178.378972 
L 123.779112 230.424666 
L 125.317119 232.552442 
L 126.855125 230.422746 
L 128.393131 233.115733 
L 129.931138 230.4221 
L 131.469144 232.900115 
L 133.00715 230.422344 
L 134.545156 232.909386 
L 136.083163 230.421857 
L 137.621169 232.590374 
L 139.159175 230.420934 
L 140.697182 232.724514 
L 142.235188 230.420098 
L 143.773194 232.55725 
L 145.311201 230.419614 
L 146.849207 232.926751 
L 148.387213 230.418243 
L 149.925219 232.779488 
L 151.463226 230.417736 
L 153.001232 232.753724 
L 154.539238 230.418196 
L 156.077245 232.414097 
L 157.615251 230.418658 
L 159.153257 232.189517 
L 160.691264 230.418434 
L 162.22927 232.222131 
L 163.767276 230.41842 
L 165.305282 30.067912 
L 166.843289 230.442532 
L 168.381295 236.054417 
L 169.919301 230.440477 
L 171.457308 236.117402 
L 172.995314 230.438693 
L 174.53332 235.965277 
L 176.071327 230.437268 
L 177.609333 236.391776 
L 179.147339 230.435577 
L 180.685346 235.616146 
L 182.223352 230.434028 
L 183.761358 235.878509 
L 185.299364 230.433138 
L 186.837371 235.272064 
L 188.375377 230.431335 
L 189.913383 235.447238 
L 191.45139 230.429735 
L 192.989396 235.251274 
L 194.527402 230.429029 
L 196.065409 235.340281 
L 197.603415 230.428626 
L 199.141421 235.197692 
L 200.679427 230.42789 
L 202.217434 234.908125 
L 203.75544 230.426576 
L 205.293446 234.589611 
L 206.831453 230.426936 
L 208.369459 134.85456 
L 209.907465 230.444045 
L 211.445472 233.848578 
L 212.983478 230.444356 
L 214.521484 233.896499 
L 216.05949 230.44267 
L 217.597497 233.908684 
L 219.135503 230.440671 
L 220.673509 234.884475 
L 222.211516 230.4387 
L 223.749522 233.940956 
L 225.287528 230.43751 
L 226.825535 234.262767 
L 228.363541 230.4365 
L 229.901547 233.520868 
L 231.439553 230.434352 
L 232.97756 233.509771 
L 234.515566 230.433292 
L 236.053572 233.359448 
L 237.591579 230.432635 
L 239.129585 233.506757 
L 240.667591 230.431775 
L 242.205598 233.785097 
L 243.743604 230.430523 
L 245.28161 233.584233 
L 246.819616 230.428386 
L 248.357623 233.099473 
L 249.895629 230.426831 
L 251.433635 164.68705 
L 252.971642 230.439047 
L 254.509648 232.420737 
L 256.047654 230.440436 
L 257.585661 232.62047 
L 259.123667 230.439887 
L 260.661673 232.634846 
L 262.199679 230.43892 
L 263.737686 233.862333 
L 265.275692 230.437679 
L 266.813698 233.00166 
L 268.351705 230.437402 
L 269.889711 233.124512 
L 271.427717 230.436671 
L 272.965724 232.486435 
L 274.50373 230.435382 
L 276.041736 232.198559 
L 277.579743 230.434944 
L 279.117749 232.171576 
L 280.655755 230.435022 
L 282.193761 232.140361 
L 283.731768 230.434823 
L 285.269774 232.622498 
L 286.80778 230.434617 
L 288.345787 232.38961 
L 289.883793 230.433582 
L 291.421799 231.713568 
L 292.959806 230.431134 
L 294.497812 182.512028 
L 296.035818 230.437168 
L 297.573824 231.568959 
L 299.111831 230.437097 
L 300.649837 231.809427 
L 302.187843 230.437658 
L 303.72585 231.733244 
L 305.263856 230.438074 
L 306.801862 232.849158 
L 308.339869 230.437384 
L 309.877875 232.193812 
L 311.415881 230.437504 
L 312.953887 232.123273 
L 314.491894 230.437163 
L 316.0299 231.821291 
L 317.567906 230.436932 
L 319.105913 231.303408 
L 320.643919 230.436848 
L 322.181925 231.562719 
L 323.719932 230.437376 
L 325.257938 231.450948 
L 326.795944 230.437628 
L 328.33395 231.832824 
L 329.871957 230.438108 
L 331.409963 231.457916 
L 332.947969 230.438583 
L 334.485976 228.995875 
L 336.023982 230.438871 
L 337.561988 196.097326 
L 339.099995 230.441757 
L 340.638001 231.202745 
L 342.176007 230.439922 
L 343.714013 231.354611 
L 345.25202 230.440736 
L 346.790026 231.173272 
L 348.328032 230.441638 
L 349.866039 232.014491 
L 351.404045 230.440648 
L 352.942051 231.426455 
L 354.480058 230.440605 
L 356.018064 231.239716 
L 357.55607 230.440538 
L 359.094076 231.355025 
L 360.632083 230.441169 
L 362.170089 230.671766 
L 363.708095 230.441727 
L 365.246102 231.222053 
L 366.784108 230.442185 
L 368.322114 231.311667 
L 369.860121 230.442391 
L 371.398127 231.441008 
L 372.936133 230.442482 
L 374.47414 230.704484 
L 376.012146 230.443202 
L 377.550152 226.54106 
L 379.088158 230.446008 
L 380.626165 206.170512 
L 382.164171 230.448781 
L 383.702177 231.100791 
L 385.240184 230.447162 
L 386.77819 231.180428 
L 388.316196 230.447317 
L 389.854203 230.952136 
L 391.392209 230.447567 
L 392.930215 231.769322 
L 394.468221 230.445926 
L 396.006228 230.903439 
L 397.544234 230.445548 
L 399.08224 230.666821 
L 400.620247 230.445586 
L 402.158253 231.065122 
L 403.696259 230.446262 
L 405.234266 230.21815 
L 406.772272 230.447698 
L 408.310278 231.003309 
L 409.848284 230.448062 
L 411.386291 231.230462 
L 412.924297 230.448656 
L 414.462303 230.932142 
L 416.00031 230.448888 
L 417.538316 229.800662 
L 419.076322 230.44953 
L 420.614329 225.341599 
L 422.152335 230.450161 
L 423.690341 213.330327 
L 425.228347 230.453572 
L 426.766354 231.069401 
L 428.30436 230.454173 
L 429.842366 231.146116 
L 431.380373 230.453993 
L 432.918379 230.917759 
L 434.456385 230.453724 
L 435.994392 232.201786 
L 437.532398 230.452861 
L 439.070404 230.744221 
L 440.60841 230.452557 
L 442.146417 230.545428 
L 443.684423 230.452605 
L 445.222429 230.957404 
L 448.298442 229.949114 
L 449.836448 230.455153 
L 451.374455 231.158644 
L 452.912461 230.455588 
L 454.450467 231.139025 
L 455.988474 230.456382 
L 457.52648 230.515569 
L 459.064486 230.456724 
L 460.602492 229.134784 
L 462.140499 230.456443 
L 463.678505 225.005125 
L 465.216511 230.454259 
L 466.754518 218.277139 
L 468.292524 230.457382 
L 469.83053 231.101727 
L 471.368537 230.459784 
L 472.906543 231.236487 
L 474.444549 230.460211 
L 475.982555 231.0274 
L 477.520562 230.460503 
L 479.058568 230.848441 
L 480.596574 230.459165 
L 482.134581 230.728826 
L 483.672587 230.459117 
L 485.210593 230.648641 
L 486.7486 230.45901 
L 488.286606 230.902166 
L 489.824612 230.459165 
L 491.362618 229.706376 
L 492.900625 230.460972 
L 494.438631 231.368235 
L 495.976637 230.461401 
L 497.514644 230.858804 
L 499.05265 230.461683 
L 500.590656 230.190805 
L 502.128663 230.461449 
L 503.666669 228.745825 
L 505.204675 230.460272 
L 506.742681 225.100328 
L 508.280688 230.459054 
L 509.818694 221.611238 
L 511.3567 230.460624 
L 512.894707 230.94558 
L 514.432713 230.462259 
L 515.970719 231.153898 
L 517.508726 230.463037 
L 519.046732 230.947469 
L 520.584738 230.46392 
L 522.122744 231.269909 
L 523.660751 230.464057 
L 525.198757 230.806414 
L 526.736763 230.464135 
L 528.27477 230.884702 
L 529.812776 230.463712 
L 531.350782 231.022557 
L 534.426795 229.798399 
L 537.502807 231.234068 
L 539.040814 230.464847 
L 540.57882 230.65515 
L 542.116826 230.464567 
L 543.654833 229.980019 
L 545.192839 230.463793 
L 546.730845 228.643555 
L 548.268852 230.463118 
L 549.806858 225.716368 
L 551.344864 230.46567 
L 552.882871 224.268007 
L 554.420877 230.465766 
L 555.958883 230.807608 
L 557.496889 230.465566 
L 559.034896 231.050379 
L 560.572902 230.465556 
L 562.110908 230.812127 
L 563.648915 230.466098 
L 565.186921 231.366961 
L 566.724927 230.466198 
L 568.262934 230.808479 
L 568.262934 230.808479 
" clip-path="url(#p4c41771ad4)" style="fill: none; stroke: #000000; stroke-width: 1.2; stroke-linecap: square"/>
   </g>
   <g id="line2d_15">
    <defs>
     <path id="m1152add5d1" d="M 0 3 
C 0.795609 3 1.55874 2.683901 2.12132 2.12132 
C 2.683901 1.55874 3 0.795609 3 0 
C 3 -0.795609 2.683901 -1.55874 2.12132 -2.12132 
C 1.55874 -2.683901 0.795609 -3 0 -3 
C -0.795609 -3 -1.55874 -2.683901 -2.12132 -2.12132 
C -2.683901 -1.55874 -3 -0.795609 -3 0 
C -3 0.795609 -2.683901 1.55874 -2.12132 2.12132 
C -1.55874 2.683901 -0.795609 3 0 3 
z
" style="stroke: #0d0887"/>
    </defs>
    <g clip-path="url(#p4c41771ad4)">
     <use xlink:href="#m1152add5d1" x="165.305282" y="30.067912" style="fill: #0d0887; stroke: #0d0887"/>
    </g>
   </g>
   <g id="line2d_16">
    <path d="M 165.305282 246.707969 
L 165.305282 19.751719 
" clip-path="url(#p4c41771ad4)" style="fill: none; stroke-dasharray: 5.55,2.4; stroke-dashoffset: 0; stroke: #0d0887; stroke-opacity: 0.4; stroke-width: 1.5"/>
   </g>
   <g id="line2d_17">
    <defs>
     <path id="m9d8c989525" d="M 0 3 
C 0.795609 3 1.55874 2.683901 2.12132 2.12132 
C 2.683901 1.55874 3 0.795609 3 0 
C 3 -0.795609 2.683901 -1.55874 2.12132 -2.12132 
C 1.55874 -2.683901 0.795609 -3 0 -3 
C -0.795609 -3 -1.55874 -2.683901 -2.12132 -2.12132 
C -2.683901 -1.55874 -3 -0.795609 -3 0 
C -3 0.795609 -2.683901 1.55874 -2.12132 2.12132 
C -1.55874 2.683901 -0.795609 3 0 3 
z
" style="stroke: #4c02a1"/>
    </defs>
    <g clip-path="url(#p4c41771ad4)">
     <use xlink:href="#m9d8c989525" x="208.369459" y="134.85456" style="fill: #4c02a1; stroke: #4c02a1"/>
    </g>
   </g>
   <g id="line2d_18">
    <path d="M 208.369459 246.707969 
L 208.369459 19.751719 
" clip-path="url(#p4c41771ad4)" style="fill: none; stroke-dasharray: 5.55,2.4; stroke-dashoffset: 0; stroke: #4c02a1; stroke-opacity: 0.4; stroke-width: 1.5"/>
   </g>
   <g id="line2d_19">
    <defs>
     <path id="m11767f9203" d="M 0 3 
C 0.795609 3 1.55874 2.683901 2.12132 2.12132 
C 2.683901 1.55874 3 0.795609 3 0 
C 3 -0.795609 2.683901 -1.55874 2.12132 -2.12132 
C 1.55874 -2.683901 0.795609 -3 0 -3 
C -0.795609 -3 -1.55874 -2.683901 -2.12132 -2.12132 
C -2.683901 -1.55874 -3 -0.795609 -3 0 
C -3 0.795609 -2.683901 1.55874 -2.12132 2.12132 
C -1.55874 2.683901 -0.795609 3 0 3 
z
" style="stroke: #8004a8"/>
    </defs>
    <g clip-path="url(#p4c41771ad4)">
     <use xlink:href="#m11767f9203" x="251.433635" y="164.68705" style="fill: #8004a8; stroke: #8004a8"/>
    </g>
   </g>
   <g id="line2d_20">
    <path d="M 251.433635 246.707969 
L 251.433635 19.751719 
" clip-path="url(#p4c41771ad4)" style="fill: none; stroke-dasharray: 5.55,2.4; stroke-dashoffset: 0; stroke: #8004a8; stroke-opacity: 0.4; stroke-width: 1.5"/>
   </g>
   <g id="line2d_21">
    <defs>
     <path id="m4a5c4072fd" d="M 0 3 
C 0.795609 3 1.55874 2.683901 2.12132 2.12132 
C 2.683901 1.55874 3 0.795609 3 0 
C 3 -0.795609 2.683901 -1.55874 2.12132 -2.12132 
C 1.55874 -2.683901 0.795609 -3 0 -3 
C -0.795609 -3 -1.55874 -2.683901 -2.12132 -2.12132 
C -2.683901 -1.55874 -3 -0.795609 -3 0 
C -3 0.795609 -2.683901 1.55874 -2.12132 2.12132 
C -1.55874 2.683901 -0.795609 3 0 3 
z
" style="stroke: #ac2694"/>
    </defs>
    <g clip-path="url(#p4c41771ad4)">
     <use xlink:href="#m4a5c4072fd" x="294.497812" y="182.512028" style="fill: #ac2694; stroke: #ac2694"/>
    </g>
   </g>
   <g id="line2d_22">
    <path d="M 294.497812 246.707969 
L 294.497812 19.751719 
" clip-path="url(#p4c41771ad4)" style="fill: none; stroke-dasharray: 5.55,2.4; stroke-dashoffset: 0; stroke: #ac2694; stroke-opacity: 0.4; stroke-width: 1.5"/>
   </g>
   <g id="line2d_23">
    <defs>
     <path id="m3dbda54cae" d="M 0 3 
C 0.795609 3 1.55874 2.683901 2.12132 2.12132 
C 2.683901 1.55874 3 0.795609 3 0 
C 3 -0.795609 2.683901 -1.55874 2.12132 -2.12132 
C 1.55874 -2.683901 0.795609 -3 0 -3 
C -0.795609 -3 -1.55874 -2.683901 -2.12132 -2.12132 
C -2.683901 -1.55874 -3 -0.795609 -3 0 
C -3 0.795609 -2.683901 1.55874 -2.12132 2.12132 
C -1.55874 2.683901 -0.795609 3 0 3 
z
" style="stroke: #ce4b75"/>
    </defs>
    <g clip-path="url(#p4c41771ad4)">
     <use xlink:href="#m3dbda54cae" x="337.561988" y="196.097326" style="fill: #ce4b75; stroke: #ce4b75"/>
    </g>
   </g>
   <g id="line2d_24">
    <path d="M 334.485976 246.707969 
L 334.485976 19.751719 
" clip-path="url(#p4c41771ad4)" style="fill: none; stroke-dasharray: 5.55,2.4; stroke-dashoffset: 0; stroke: #ce4b75; stroke-opacity: 0.4; stroke-width: 1.5"/>
   </g>
   <g id="line2d_25">
    <defs>
     <path id="m4b7b14e673" d="M 0 3 
C 0.795609 3 1.55874 2.683901 2.12132 2.12132 
C 2.683901 1.55874 3 0.795609 3 0 
C 3 -0.795609 2.683901 -1.55874 2.12132 -2.12132 
C 1.55874 -2.683901 0.795609 -3 0 -3 
C -0.795609 -3 -1.55874 -2.683901 -2.12132 -2.12132 
C -2.683901 -1.55874 -3 -0.795609 -3 0 
C -3 0.795609 -2.683901 1.55874 -2.12132 2.12132 
C -1.55874 2.683901 -0.795609 3 0 3 
z
" style="stroke: #e97158"/>
    </defs>
    <g clip-path="url(#p4c41771ad4)">
     <use xlink:href="#m4b7b14e673" x="380.626165" y="206.170512" style="fill: #e97158; stroke: #e97158"/>
    </g>
   </g>
   <g id="line2d_26">
    <path d="M 377.550152 246.707969 
L 377.550152 19.751719 
" clip-path="url(#p4c41771ad4)" style="fill: none; stroke-dasharray: 5.55,2.4; stroke-dashoffset: 0; stroke: #e97158; stroke-opacity: 0.4; stroke-width: 1.5"/>
   </g>
   <g id="line2d_27">
    <defs>
     <path id="m8089246207" d="M 0 3 
C 0.795609 3 1.55874 2.683901 2.12132 2.12132 
C 2.683901 1.55874 3 0.795609 3 0 
C 3 -0.795609 2.683901 -1.55874 2.12132 -2.12132 
C 1.55874 -2.683901 0.795609 -3 0 -3 
C -0.795609 -3 -1.55874 -2.683901 -2.12132 -2.12132 
C -2.683901 -1.55874 -3 -0.795609 -3 0 
C -3 0.795609 -2.683901 1.55874 -2.12132 2.12132 
C -1.55874 2.683901 -0.795609 3 0 3 
z
" style="stroke: #fa9c3c"/>
    </defs>
    <g clip-path="url(#p4c41771ad4)">
     <use xlink:href="#m8089246207" x="423.690341" y="213.330327" style="fill: #fa9c3c; stroke: #fa9c3c"/>
    </g>
   </g>
   <g id="line2d_28">
    <path d="M 420.614329 246.707969 
L 420.614329 19.751719 
" clip-path="url(#p4c41771ad4)" style="fill: none; stroke-dasharray: 5.55,2.4; stroke-dashoffset: 0; stroke: #fa9c3c; stroke-opacity: 0.4; stroke-width: 1.5"/>
   </g>
   <g id="line2d_29">
    <defs>
     <path id="me2ec9acfcf" d="M 0 3 
C 0.795609 3 1.55874 2.683901 2.12132 2.12132 
C 2.683901 1.55874 3 0.795609 3 0 
C 3 -0.795609 2.683901 -1.55874 2.12132 -2.12132 
C 1.55874 -2.683901 0.795609 -3 0 -3 
C -0.795609 -3 -1.55874 -2.683901 -2.12132 -2.12132 
C -2.683901 -1.55874 -3 -0.795609 -3 0 
C -3 0.795609 -2.683901 1.55874 -2.12132 2.12132 
C -1.55874 2.683901 -0.795609 3 0 3 
z
" style="stroke: #fcce25"/>
    </defs>
    <g clip-path="url(#p4c41771ad4)">
     <use xlink:href="#me2ec9acfcf" x="466.754518" y="218.277139" style="fill: #fcce25; stroke: #fcce25"/>
    </g>
   </g>
   <g id="line2d_30">
    <path d="M 463.678505 246.707969 
L 463.678505 19.751719 
" clip-path="url(#p4c41771ad4)" style="fill: none; stroke-dasharray: 5.55,2.4; stroke-dashoffset: 0; stroke: #fcce25; stroke-opacity: 0.4; stroke-width: 1.5"/>
   </g>
   <g id="patch_3">
    <path d="M 35.34375 246.707969 
L 35.34375 19.751719 
" style="fill: none; stroke: #000000; stroke-linejoin: miter; stroke-linecap: square"/>
   </g>
   <g id="patch_4">
    <path d="M 35.34375 246.707969 
L 593.640038 246.707969 
" style="fill: none; stroke: #000000; stroke-linejoin: miter; stroke-linecap: square"/>
   </g>
   <g id="text_16">
    <!--  $\alpha$=1.000 -->
    <g style="fill: #0d0887" transform="translate(165.305282 28.291818)">
     <text>
      <tspan style="font: 700 9px 'Arial'" x="0 8.433105 13.688965 18.694336 21.194824 26.200195 31.205566" y="-0.53125"> =1.000</tspan>
      <tspan style="font: oblique 9px 'DejaVu Sans'" x="2.500488" y="-0.53125">α</tspan>
     </text>
    </g>
   </g>
   <g id="text_17">
    <!--  $\alpha$=0.477 -->
    <g style="fill: #4c02a1" transform="translate(208.369459 133.078467)">
     <text>
      <tspan style="font: 700 9px 'Arial'" x="0 8.433105 13.688965 18.694336 21.194824 26.200195 31.205566" y="-0.53125"> =0.477</tspan>
      <tspan style="font: oblique 9px 'DejaVu Sans'" x="2.500488" y="-0.53125">α</tspan>
     </text>
    </g>
   </g>
   <g id="text_18">
    <!--  $\alpha$=0.328 -->
    <g style="fill: #8004a8" transform="translate(251.433635 162.910956)">
     <text>
      <tspan style="font: 700 9px 'Arial'" x="0 8.433105 13.688965 18.694336 21.194824 26.200195 31.205566" y="-0.53125"> =0.328</tspan>
      <tspan style="font: oblique 9px 'DejaVu Sans'" x="2.500488" y="-0.53125">α</tspan>
     </text>
    </g>
   </g>
   <g id="text_19">
    <!--  $\alpha$=0.239 -->
    <g style="fill: #ac2694" transform="translate(294.497812 180.735934)">
     <text>
      <tspan style="font: 700 9px 'Arial'" x="0 8.433105 13.688965 18.694336 21.194824 26.200195 31.205566" y="-0.53125"> =0.239</tspan>
      <tspan style="font: oblique 9px 'DejaVu Sans'" x="2.500488" y="-0.53125">α</tspan>
     </text>
    </g>
   </g>
   <g id="text_20">
    <!--  $\alpha$=0.171 -->
    <g style="fill: #ce4b75" transform="translate(337.561988 194.321232)">
     <text>
      <tspan style="font: 700 9px 'Arial'" x="0 8.433105 13.688965 18.694336 21.194824 26.200195 31.205566" y="-0.53125"> =0.171</tspan>
      <tspan style="font: oblique 9px 'DejaVu Sans'" x="2.500488" y="-0.53125">α</tspan>
     </text>
    </g>
   </g>
   <g id="text_21">
    <!--  $\alpha$=0.121 -->
    <g style="fill: #e97158" transform="translate(380.626165 204.394418)">
     <text>
      <tspan style="font: 700 9px 'Arial'" x="0 8.433105 13.688965 18.694336 21.194824 26.200195 31.205566" y="-0.53125"> =0.121</tspan>
      <tspan style="font: oblique 9px 'DejaVu Sans'" x="2.500488" y="-0.53125">α</tspan>
     </text>
    </g>
   </g>
   <g id="text_22">
    <!--  $\alpha$=0.085 -->
    <g style="fill: #fa9c3c" transform="translate(423.690341 211.554233)">
     <text>
      <tspan style="font: 700 9px 'Arial'" x="0 8.433105 13.688965 18.694336 21.194824 26.200195 31.205566" y="-0.53125"> =0.085</tspan>
      <tspan style="font: oblique 9px 'DejaVu Sans'" x="2.500488" y="-0.53125">α</tspan>
     </text>
    </g>
   </g>
   <g id="text_23">
    <!--  $\alpha$=0.060 -->
    <g style="fill: #fcce25" transform="translate(466.754518 216.501045)">
     <text>
      <tspan style="font: 700 9px 'Arial'" x="0 8.433105 13.688965 18.694336 21.194824 26.200195 31.205566" y="-0.53125"> =0.060</tspan>
      <tspan style="font: oblique 9px 'DejaVu Sans'" x="2.500488" y="-0.53125">α</tspan>
     </text>
    </g>
   </g>
   <g id="text_24">
    <text style="font: 9px 'Arial', 'Helvetica', 'DejaVu Sans', 'Liberation Sans', 'SimHei', 'Microsoft YaHei', sans-serif; text-anchor: middle" x="314.491894" y="13.751719" transform="rotate(-0 314.491894 13.751719)">Local Peak Extraction (2D) | Steady x1 4500 s= 20 n= 8</text>
   </g>
   <g id="legend_1">
    <g id="line2d_31">
     <path d="M 606.423 29.975469 
L 614.423 29.975469 
L 622.423 29.975469 
" style="fill: none; stroke: #000000; stroke-width: 1.2; stroke-linecap: square"/>
    </g>
    <g id="text_25">
     <text style="font: 8px 'Arial', 'Helvetica', 'DejaVu Sans', 'Liberation Sans', 'SimHei', 'Microsoft YaHei', sans-serif; text-anchor: start" x="628.823" y="32.775469" transform="rotate(-0 628.823 32.775469)">2D Cepstrum Profile</text>
    </g>
    <g id="line2d_32">
     <g>
      <use xlink:href="#m1152add5d1" x="614.423" y="41.389219" style="fill: #0d0887; stroke: #0d0887"/>
     </g>
    </g>
    <g id="text_26">
     <text style="font: 8px 'Arial', 'Helvetica', 'DejaVu Sans', 'Liberation Sans', 'SimHei', 'Microsoft YaHei', sans-serif; text-anchor: start" x="628.823" y="44.189219" transform="rotate(-0 628.823 44.189219)">Frac 1 (4499.7m)</text>
    </g>
    <g id="line2d_33">
     <g>
      <use xlink:href="#m9d8c989525" x="614.423" y="52.896719" style="fill: #4c02a1; stroke: #4c02a1"/>
     </g>
    </g>
    <g id="text_27">
     <text style="font: 8px 'Arial', 'Helvetica', 'DejaVu Sans', 'Liberation Sans', 'SimHei', 'Microsoft YaHei', sans-serif; text-anchor: start" x="628.823" y="55.696719" transform="rotate(-0 628.823 55.696719)">Frac 2 (4520.0m)</text>
    </g>
    <g id="line2d_34">
     <g>
      <use xlink:href="#m11767f9203" x="614.423" y="64.404219" style="fill: #8004a8; stroke: #8004a8"/>
     </g>
    </g>
    <g id="text_28">
     <text style="font: 8px 'Arial', 'Helvetica', 'DejaVu Sans', 'Liberation Sans', 'SimHei', 'Microsoft YaHei', sans-serif; text-anchor: start" x="628.823" y="67.204219" transform="rotate(-0 628.823 67.204219)">Frac 3 (4540.3m)</text>
    </g>
    <g id="line2d_35">
     <g>
      <use xlink:href="#m4a5c4072fd" x="614.423" y="75.911719" style="fill: #ac2694; stroke: #ac2694"/>
     </g>
    </g>
    <g id="text_29">
     <text style="font: 8px 'Arial', 'Helvetica', 'DejaVu Sans', 'Liberation Sans', 'SimHei', 'Microsoft YaHei', sans-serif; text-anchor: start" x="628.823" y="78.711719" transform="rotate(-0 628.823 78.711719)">Frac 4 (4560.6m)</text>
    </g>
    <g id="line2d_36">
     <g>
      <use xlink:href="#m3dbda54cae" x="614.423" y="87.419219" style="fill: #ce4b75; stroke: #ce4b75"/>
     </g>
    </g>
    <g id="text_30">
     <text style="font: 8px 'Arial', 'Helvetica', 'DejaVu Sans', 'Liberation Sans', 'SimHei', 'Microsoft YaHei', sans-serif; text-anchor: start" x="628.823" y="90.219219" transform="rotate(-0 628.823 90.219219)">Frac 5 (4579.5m)</text>
    </g>
    <g id="line2d_37">
     <g>
      <use xlink:href="#m4b7b14e673" x="614.423" y="98.926719" style="fill: #e97158; stroke: #e97158"/>
     </g>
    </g>
    <g id="text_31">
     <text style="font: 8px 'Arial', 'Helvetica', 'DejaVu Sans', 'Liberation Sans', 'SimHei', 'Microsoft YaHei', sans-serif; text-anchor: start" x="628.823" y="101.726719" transform="rotate(-0 628.823 101.726719)">Frac 6 (4599.8m)</text>
    </g>
    <g id="line2d_38">
     <g>
      <use xlink:href="#m8089246207" x="614.423" y="110.434219" style="fill: #fa9c3c; stroke: #fa9c3c"/>
     </g>
    </g>
    <g id="text_32">
     <text style="font: 8px 'Arial', 'Helvetica', 'DejaVu Sans', 'Liberation Sans', 'SimHei', 'Microsoft YaHei', sans-serif; text-anchor: start" x="628.823" y="113.234219" transform="rotate(-0 628.823 113.234219)">Frac 7 (4620.1m)</text>
    </g>
    <g id="line2d_39">
     <g>
      <use xlink:href="#me2ec9acfcf" x="614.423" y="121.941719" style="fill: #fcce25; stroke: #fcce25"/>
     </g>
    </g>
    <g id="text_33">
     <text style="font: 8px 'Arial', 'Helvetica', 'DejaVu Sans', 'Liberation Sans', 'SimHei', 'Microsoft YaHei', sans-serif; text-anchor: start" x="628.823" y="124.741719" transform="rotate(-0 628.823 124.741719)">Frac 8 (4640.4m)</text>
    </g>
   </g>
  </g>
 </g>
 <defs>
  <clipPath id="p4c41771ad4">
   <rect x="35.34375" y="19.751719" width="558.296287" height="226.95625"/>
  </clipPath>
 </defs>
</svg>
