<?xml version="1.0" encoding="utf-8" standalone="no"?>
<!DOCTYPE svg PUBLIC "-//W3C//DTD SVG 1.1//EN"
  "http://www.w3.org/Graphics/SVG/1.1/DTD/svg11.dtd">
<svg xmlns:xlink="http://www.w3.org/1999/xlink" width="711.243pt" height="278.817187pt" viewBox="0 0 711.243 278.817187" xmlns="http://www.w3.org/2000/svg" version="1.1">
 <metadata>
  <rdf:RDF xmlns:dc="http://purl.org/dc/elements/1.1/" xmlns:cc="http://creativecommons.org/ns#" xmlns:rdf="http://www.w3.org/1999/02/22-rdf-syntax-ns#">
   <cc:Work>
    <dc:type rdf:resource="http://purl.org/dc/dcmitype/StillImage"/>
    <dc:date>2026-07-17T20:39:24.876394</dc:date>
    <dc:format>image/svg+xml</dc:format>
    <dc:creator>
     <cc:Agent>
      <dc:title>Matplotlib v3.8.4, https://matplotlib.org/</dc:title>
     </cc:Agent>
    </dc:creator>
   </cc:Work>
  </rdf:RDF>
 </metadata>
 <defs>
  <style type="text/css">*{stroke-linejoin: round; stroke-linecap: butt}</style>
 </defs>
 <g id="figure_1">
  <g id="patch_1">
   <path d="M 0 278.817187 
L 711.243 278.817187 
L 711.243 0 
L 0 0 
z
" style="fill: #ffffff"/>
  </g>
  <g id="axes_1">
   <g id="patch_2">
    <path d="M 35.34375 246.707969 
L 593.640037 246.707969 
L 593.640037 19.751719 
L 35.34375 19.751719 
z
" style="fill: #ffffff"/>
   </g>
   <g id="matplotlib.axis_1">
    <g id="xtick_1">
     <g id="line2d_1">
      <defs>
       <path id="m8b5ea7911d" d="M 0 0 
L 0 3.5 
" style="stroke: #000000; stroke-width: 0.8"/>
      </defs>
      <g>
       <use xlink:href="#m8b5ea7911d" x="60.40852" y="246.707969" style="stroke: #000000; stroke-width: 0.8"/>
      </g>
     </g>
     <g id="text_1">
      <text style="font: 7px 'Arial', 'Helvetica', 'DejaVu Sans', 'Liberation Sans', 'SimHei', 'Microsoft YaHei', sans-serif; text-anchor: middle" x="60.40852" y="258.718437" transform="rotate(-0 60.40852 258.718437)">3950</text>
     </g>
    </g>
    <g id="xtick_2">
     <g id="line2d_2">
      <g>
       <use xlink:href="#m8b5ea7911d" x="127.716408" y="246.707969" style="stroke: #000000; stroke-width: 0.8"/>
      </g>
     </g>
     <g id="text_2">
      <text style="font: 7px 'Arial', 'Helvetica', 'DejaVu Sans', 'Liberation Sans', 'SimHei', 'Microsoft YaHei', sans-serif; text-anchor: middle" x="127.716408" y="258.718437" transform="rotate(-0 127.716408 258.718437)">3975</text>
     </g>
    </g>
    <g id="xtick_3">
     <g id="line2d_3">
      <g>
       <use xlink:href="#m8b5ea7911d" x="195.024297" y="246.707969" style="stroke: #000000; stroke-width: 0.8"/>
      </g>
     </g>
     <g id="text_3">
      <text style="font: 7px 'Arial', 'Helvetica', 'DejaVu Sans', 'Liberation Sans', 'SimHei', 'Microsoft YaHei', sans-serif; text-anchor: middle" x="195.024297" y="258.718437" transform="rotate(-0 195.024297 258.718437)">4000</text>
     </g>
    </g>
    <g id="xtick_4">
     <g id="line2d_4">
      <g>
       <use xlink:href="#m8b5ea7911d" x="262.332185" y="246.707969" style="stroke: #000000; stroke-width: 0.8"/>
      </g>
     </g>
     <g id="text_4">
      <text style="font: 7px 'Arial', 'Helvetica', 'DejaVu Sans', 'Liberation Sans', 'SimHei', 'Microsoft YaHei', sans-serif; text-anchor: middle" x="262.332185" y="258.718437" transform="rotate(-0 262.332185 258.718437)">4025</text>
     </g>
    </g>
    <g id="xtick_5">
     <g id="line2d_5">
      <g>
       <use xlink:href="#m8b5ea7911d" x="329.640073" y="246.707969" style="stroke: #000000; stroke-width: 0.8"/>
      </g>
     </g>
     <g id="text_5">
      <text style="font: 7px 'Arial', 'Helvetica', 'DejaVu Sans', 'Liberation Sans', 'SimHei', 'Microsoft YaHei', sans-serif; text-anchor: middle" x="329.640073" y="258.718437" transform="rotate(-0 329.640073 258.718437)">4050</text>
     </g>
    </g>
    <g id="xtick_6">
     <g id="line2d_6">
      <g>
       <use xlink:href="#m8b5ea7911d" x="396.947961" y="246.707969" style="stroke: #000000; stroke-width: 0.8"/>
      </g>
     </g>
     <g id="text_6">
      <text style="font: 7px 'Arial', 'Helvetica', 'DejaVu Sans', 'Liberation Sans', 'SimHei', 'Microsoft YaHei', sans-serif; text-anchor: middle" x="396.947961" y="258.718437" transform="rotate(-0 396.947961 258.718437)">4075</text>
     </g>
    </g>
    <g id="xtick_7">
     <g id="line2d_7">
      <g>
       <use xlink:href="#m8b5ea7911d" x="464.255849" y="246.707969" style="stroke: #000000; stroke-width: 0.8"/>
      </g>
     </g>
     <g id="text_7">
      <text style="font: 7px 'Arial', 'Helvetica', 'DejaVu Sans', 'Liberation Sans', 'SimHei', 'Microsoft YaHei', sans-serif; text-anchor: middle" x="464.255849" y="258.718437" transform="rotate(-0 464.255849 258.718437)">4100</text>
     </g>
    </g>
    <g id="xtick_8">
     <g id="line2d_8">
      <g>
       <use xlink:href="#m8b5ea7911d" x="531.563737" y="246.707969" style="stroke: #000000; stroke-width: 0.8"/>
      </g>
     </g>
     <g id="text_8">
      <text style="font: 7px 'Arial', 'Helvetica', 'DejaVu Sans', 'Liberation Sans', 'SimHei', 'Microsoft YaHei', sans-serif; text-anchor: middle" x="531.563737" y="258.718437" transform="rotate(-0 531.563737 258.718437)">4125</text>
     </g>
    </g>
    <g id="text_9">
     <text style="font: 8px 'Arial', 'Helvetica', 'DejaVu Sans', 'Liberation Sans', 'SimHei', 'Microsoft YaHei', sans-serif; text-anchor: middle" x="314.491894" y="269.933437" transform="rotate(-0 314.491894 269.933437)">Depth (m)</text>
    </g>
   </g>
   <g id="matplotlib.axis_2">
    <g id="ytick_1">
     <g id="line2d_9">
      <defs>
       <path id="mfacac00be9" d="M 0 0 
L -3.5 0 
" style="stroke: #000000; stroke-width: 0.8"/>
      </defs>
      <g>
       <use xlink:href="#mfacac00be9" x="35.34375" y="232.199103" style="stroke: #000000; stroke-width: 0.8"/>
      </g>
     </g>
     <g id="text_10">
      <text style="font: 7px 'Arial', 'Helvetica', 'DejaVu Sans', 'Liberation Sans', 'SimHei', 'Microsoft YaHei', sans-serif; text-anchor: end" x="28.34375" y="234.704337" transform="rotate(-0 28.34375 234.704337)">0.0</text>
     </g>
    </g>
    <g id="ytick_2">
     <g id="line2d_10">
      <g>
       <use xlink:href="#mfacac00be9" x="35.34375" y="199.906233" style="stroke: #000000; stroke-width: 0.8"/>
      </g>
     </g>
     <g id="text_11">
      <text style="font: 7px 'Arial', 'Helvetica', 'DejaVu Sans', 'Liberation Sans', 'SimHei', 'Microsoft YaHei', sans-serif; text-anchor: end" x="28.34375" y="202.411467" transform="rotate(-0 28.34375 202.411467)">0.5</text>
     </g>
    </g>
    <g id="ytick_3">
     <g id="line2d_11">
      <g>
       <use xlink:href="#mfacac00be9" x="35.34375" y="167.613363" style="stroke: #000000; stroke-width: 0.8"/>
      </g>
     </g>
     <g id="text_12">
      <text style="font: 7px 'Arial', 'Helvetica', 'DejaVu Sans', 'Liberation Sans', 'SimHei', 'Microsoft YaHei', sans-serif; text-anchor: end" x="28.34375" y="170.118597" transform="rotate(-0 28.34375 170.118597)">1.0</text>
     </g>
    </g>
    <g id="ytick_4">
     <g id="line2d_12">
      <g>
       <use xlink:href="#mfacac00be9" x="35.34375" y="135.320493" style="stroke: #000000; stroke-width: 0.8"/>
      </g>
     </g>
     <g id="text_13">
      <text style="font: 7px 'Arial', 'Helvetica', 'DejaVu Sans', 'Liberation Sans', 'SimHei', 'Microsoft YaHei', sans-serif; text-anchor: end" x="28.34375" y="137.825727" transform="rotate(-0 28.34375 137.825727)">1.5</text>
     </g>
    </g>
    <g id="ytick_5">
     <g id="line2d_13">
      <g>
       <use xlink:href="#mfacac00be9" x="35.34375" y="103.027622" style="stroke: #000000; stroke-width: 0.8"/>
      </g>
     </g>
     <g id="text_14">
      <text style="font: 7px 'Arial', 'Helvetica', 'DejaVu Sans', 'Liberation Sans', 'SimHei', 'Microsoft YaHei', sans-serif; text-anchor: end" x="28.34375" y="105.532857" transform="rotate(-0 28.34375 105.532857)">2.0</text>
     </g>
    </g>
    <g id="ytick_6">
     <g id="line2d_14">
      <g>
       <use xlink:href="#mfacac00be9" x="35.34375" y="70.734752" style="stroke: #000000; stroke-width: 0.8"/>
      </g>
     </g>
     <g id="text_15">
      <text style="font: 7px 'Arial', 'Helvetica', 'DejaVu Sans', 'Liberation Sans', 'SimHei', 'Microsoft YaHei', sans-serif; text-anchor: end" x="28.34375" y="73.239987" transform="rotate(-0 28.34375 73.239987)">2.5</text>
     </g>
    </g>
    <g id="ytick_7">
     <g id="line2d_15">
      <g>
       <use xlink:href="#mfacac00be9" x="35.34375" y="38.441882" style="stroke: #000000; stroke-width: 0.8"/>
      </g>
     </g>
     <g id="text_16">
      <text style="font: 7px 'Arial', 'Helvetica', 'DejaVu Sans', 'Liberation Sans', 'SimHei', 'Microsoft YaHei', sans-serif; text-anchor: end" x="28.34375" y="40.947116" transform="rotate(-0 28.34375 40.947116)">3.0</text>
     </g>
    </g>
    <g id="text_17">
     <text style="font: 8px 'Arial', 'Helvetica', 'DejaVu Sans', 'Liberation Sans', 'SimHei', 'Microsoft YaHei', sans-serif; text-anchor: middle" x="13.02375" y="133.229844" transform="rotate(-90 13.02375 133.229844)">Cepstrum Amplitude</text>
    </g>
   </g>
   <g id="line2d_16">
    <path d="M 60.720854 231.89087 
L 62.672939 232.153321 
L 64.625024 231.86436 
L 66.577109 232.155285 
L 70.481279 232.154856 
L 72.433364 231.751434 
L 74.385448 232.150118 
L 76.337533 231.741855 
L 78.289618 232.150801 
L 80.241703 231.371493 
L 82.193788 232.152971 
L 84.145873 231.700807 
L 86.097958 232.153851 
L 88.050043 231.340264 
L 90.002128 232.15393 
L 91.954213 231.295052 
L 93.906298 232.153391 
L 95.858383 231.24227 
L 97.810467 232.153985 
L 99.762552 231.029946 
L 101.714637 232.157806 
L 103.666722 231.038934 
L 105.618807 232.158406 
L 107.570892 230.809411 
L 109.522977 232.158574 
L 111.475062 175.378723 
L 113.427147 232.166851 
L 115.379232 230.70083 
L 117.331317 232.166964 
L 119.283402 233.41691 
L 121.235487 232.165499 
L 123.187571 233.768848 
L 125.139656 232.165938 
L 127.091741 234.020228 
L 129.043826 232.166037 
L 130.995911 233.304681 
L 132.947996 232.166998 
L 134.900081 233.023775 
L 136.852166 232.16826 
L 138.804251 233.238257 
L 140.756336 232.170142 
L 142.708421 232.712388 
L 144.660506 232.172982 
L 146.612591 232.903277 
L 148.564675 232.173538 
L 150.51676 233.277703 
L 152.468845 232.172405 
L 154.42093 232.558914 
L 156.373015 232.172547 
L 158.3251 232.718513 
L 160.277185 232.171188 
L 162.22927 232.409126 
L 164.181355 232.168443 
L 166.13344 232.679148 
L 168.085525 232.169835 
L 170.03761 232.562144 
L 171.989694 232.169508 
L 173.941779 232.477604 
L 175.893864 232.167996 
L 177.845949 232.374477 
L 179.798034 232.167918 
L 181.750119 232.224916 
L 185.654289 232.174702 
L 187.606374 232.169281 
L 189.558459 231.197854 
L 191.510544 232.170466 
L 193.462629 30.067912 
L 195.414714 232.19347 
L 197.366798 234.625411 
L 199.318883 232.193663 
L 201.270968 236.391776 
L 203.223053 232.193291 
L 205.175138 236.24168 
L 207.127223 232.19107 
L 209.079308 236.188494 
L 211.031393 232.189534 
L 212.983478 235.96187 
L 214.935563 232.19038 
L 216.887648 235.537527 
L 218.839733 232.192067 
L 220.791818 235.546053 
L 222.743902 232.196082 
L 224.695987 235.419789 
L 226.648072 232.195012 
L 228.600157 235.359222 
L 230.552242 232.195511 
L 232.504327 235.863866 
L 234.456412 232.19879 
L 236.408497 235.101039 
L 238.360582 232.199592 
L 240.312667 235.18351 
L 242.264752 232.197781 
L 244.216837 234.781678 
L 246.168922 232.199923 
L 248.121006 235.217037 
L 250.073091 232.196694 
L 252.025176 234.942196 
L 253.977261 232.197969 
L 255.929346 235.048592 
L 257.881431 232.198026 
L 259.833516 234.704613 
L 261.785601 232.197682 
L 263.737686 234.801793 
L 265.689771 232.198324 
L 267.641856 234.366993 
L 269.593941 232.199671 
L 271.546025 232.134479 
L 273.49811 232.19925 
L 275.450195 132.010496 
L 277.40228 232.214537 
L 279.354365 232.848902 
L 281.30645 232.214752 
L 283.258535 233.877378 
L 285.21062 232.21386 
L 287.162705 233.813553 
L 289.11479 232.212467 
L 291.066875 233.556611 
L 293.01896 232.208548 
L 294.971045 233.628341 
L 296.923129 232.207337 
L 298.875214 233.466416 
L 300.827299 232.210107 
L 302.779384 233.28437 
L 304.731469 232.209141 
L 306.683554 233.500205 
L 308.635639 232.20938 
L 310.587724 233.361202 
L 312.539809 232.212254 
L 314.491894 234.184274 
L 316.443979 232.21317 
L 318.396064 233.574649 
L 320.348149 232.213341 
L 322.300233 233.647609 
L 324.252318 232.213587 
L 326.204403 233.365705 
L 328.156488 232.21131 
L 330.108573 233.954125 
L 332.060658 232.211802 
L 334.012743 233.68845 
L 335.964828 232.212062 
L 337.916913 233.916481 
L 339.868998 232.2116 
L 341.821083 233.055563 
L 343.773168 232.213248 
L 345.725252 233.897738 
L 347.677337 232.212651 
L 349.629422 233.40979 
L 351.581507 232.212388 
L 353.533592 229.447965 
L 355.485677 232.2135 
L 357.437762 164.812365 
L 359.389847 232.227134 
L 361.341932 232.754165 
L 363.294017 232.225745 
L 365.246102 233.116354 
L 367.198187 232.225118 
L 369.150272 232.950297 
L 371.102356 232.221673 
L 373.054441 232.619769 
L 375.006526 232.219522 
L 376.958611 233.016428 
L 378.910696 232.218615 
L 380.862781 232.784601 
L 382.814866 232.218083 
L 384.766951 232.616578 
L 386.719036 232.217023 
L 388.671121 232.89459 
L 390.623206 232.217413 
L 392.575291 232.666274 
L 394.527376 232.214171 
L 396.47946 233.721534 
L 398.431545 232.219663 
L 400.38363 233.066637 
L 402.335715 232.220402 
L 404.2878 233.157577 
L 406.239885 232.218136 
L 408.19197 233.231672 
L 410.144055 232.219903 
L 412.09614 233.309725 
L 414.048225 232.215915 
L 416.00031 233.301808 
L 417.952395 232.213802 
L 419.90448 233.572354 
L 421.856564 232.214895 
L 423.808649 232.970059 
L 425.760734 232.2151 
L 427.712819 233.233681 
L 429.664904 232.21359 
L 431.616989 232.599811 
L 433.569074 232.214753 
L 435.521159 223.773135 
L 437.473244 232.216555 
L 439.425329 188.150831 
L 441.377414 232.228408 
L 443.329499 232.809317 
L 445.281583 232.227599 
L 447.233668 232.803961 
L 449.185753 232.224752 
L 451.137838 232.65287 
L 453.089923 232.223981 
L 455.042008 232.603597 
L 456.994093 232.223485 
L 458.946178 232.751725 
L 460.898263 232.222251 
L 462.850348 232.678049 
L 464.802433 232.223426 
L 466.754518 232.551697 
L 468.706603 232.223101 
L 470.658687 232.89804 
L 472.610772 232.22021 
L 474.562857 232.443712 
L 476.514942 232.220624 
L 478.467027 233.799427 
L 480.419112 232.222339 
L 482.371197 232.941781 
L 484.323282 232.222345 
L 486.275367 233.187454 
L 488.227452 232.22146 
L 490.179537 233.373856 
L 492.131622 232.220692 
L 494.083707 233.129187 
L 496.035791 232.220165 
L 497.987876 233.147619 
L 499.939961 232.22071 
L 501.892046 233.437557 
L 503.844131 232.220271 
L 505.796216 232.538292 
L 507.748301 232.221115 
L 509.700386 233.191502 
L 513.604556 231.310761 
L 515.556641 232.220494 
L 517.508726 222.764919 
L 519.46081 232.220195 
L 521.412895 204.943573 
L 523.36498 232.231045 
L 525.317065 233.101147 
L 527.26915 232.230086 
L 529.221235 233.08149 
L 531.17332 232.228935 
L 533.125405 232.774292 
L 535.07749 232.228086 
L 537.029575 233.102679 
L 538.98166 232.229039 
L 540.933745 233.026454 
L 542.88583 232.231053 
L 544.837914 233.133683 
L 546.789999 232.230713 
L 548.742084 232.976307 
L 550.694169 232.231463 
L 552.646254 233.254944 
L 554.598339 232.232681 
L 556.550424 232.779036 
L 558.502509 232.231421 
L 560.454594 234.239313 
L 562.406679 232.23168 
L 564.358764 233.273312 
L 566.310849 232.229245 
L 568.262934 233.564218 
L 568.262934 233.564218 
" clip-path="url(#pe9a7923f20)" style="fill: none; stroke: #000000; stroke-width: 1.2; stroke-linecap: square"/>
   </g>
   <g id="line2d_17">
    <defs>
     <path id="m5e4cc26a15" d="M 0 3 
C 0.795609 3 1.55874 2.683901 2.12132 2.12132 
C 2.683901 1.55874 3 0.795609 3 0 
C 3 -0.795609 2.683901 -1.55874 2.12132 -2.12132 
C 1.55874 -2.683901 0.795609 -3 0 -3 
C -0.795609 -3 -1.55874 -2.683901 -2.12132 -2.12132 
C -2.683901 -1.55874 -3 -0.795609 -3 0 
C -3 0.795609 -2.683901 1.55874 -2.12132 2.12132 
C -1.55874 2.683901 -0.795609 3 0 3 
z
" style="stroke: #0d0887"/>
    </defs>
    <g clip-path="url(#pe9a7923f20)">
     <use xlink:href="#m5e4cc26a15" x="193.462629" y="30.067912" style="fill: #0d0887; stroke: #0d0887"/>
    </g>
   </g>
   <g id="line2d_18">
    <path d="M 193.462629 246.707969 
L 193.462629 19.751719 
" clip-path="url(#pe9a7923f20)" style="fill: none; stroke-dasharray: 5.55,2.4; stroke-dashoffset: 0; stroke: #0d0887; stroke-opacity: 0.4; stroke-width: 1.5"/>
   </g>
   <g id="line2d_19">
    <defs>
     <path id="ma424f4dd40" d="M 0 3 
C 0.795609 3 1.55874 2.683901 2.12132 2.12132 
C 2.683901 1.55874 3 0.795609 3 0 
C 3 -0.795609 2.683901 -1.55874 2.12132 -2.12132 
C 1.55874 -2.683901 0.795609 -3 0 -3 
C -0.795609 -3 -1.55874 -2.683901 -2.12132 -2.12132 
C -2.683901 -1.55874 -3 -0.795609 -3 0 
C -3 0.795609 -2.683901 1.55874 -2.12132 2.12132 
C -1.55874 2.683901 -0.795609 3 0 3 
z
" style="stroke: #8f0da4"/>
    </defs>
    <g clip-path="url(#pe9a7923f20)">
     <use xlink:href="#ma424f4dd40" x="275.450195" y="132.010496" style="fill: #8f0da4; stroke: #8f0da4"/>
    </g>
   </g>
   <g id="line2d_20">
    <path d="M 275.450195 246.707969 
L 275.450195 19.751719 
" clip-path="url(#pe9a7923f20)" style="fill: none; stroke-dasharray: 5.55,2.4; stroke-dashoffset: 0; stroke: #8f0da4; stroke-opacity: 0.4; stroke-width: 1.5"/>
   </g>
   <g id="line2d_21">
    <defs>
     <path id="m8ab2f11ffe" d="M 0 3 
C 0.795609 3 1.55874 2.683901 2.12132 2.12132 
C 2.683901 1.55874 3 0.795609 3 0 
C 3 -0.795609 2.683901 -1.55874 2.12132 -2.12132 
C 1.55874 -2.683901 0.795609 -3 0 -3 
C -0.795609 -3 -1.55874 -2.683901 -2.12132 -2.12132 
C -2.683901 -1.55874 -3 -0.795609 -3 0 
C -3 0.795609 -2.683901 1.55874 -2.12132 2.12132 
C -1.55874 2.683901 -0.795609 3 0 3 
z
" style="stroke: #e16462"/>
    </defs>
    <g clip-path="url(#pe9a7923f20)">
     <use xlink:href="#m8ab2f11ffe" x="357.437762" y="164.812365" style="fill: #e16462; stroke: #e16462"/>
    </g>
   </g>
   <g id="line2d_22">
    <path d="M 357.437762 246.707969 
L 357.437762 19.751719 
" clip-path="url(#pe9a7923f20)" style="fill: none; stroke-dasharray: 5.55,2.4; stroke-dashoffset: 0; stroke: #e16462; stroke-opacity: 0.4; stroke-width: 1.5"/>
   </g>
   <g id="line2d_23">
    <defs>
     <path id="mb37d2cd404" d="M 0 3 
C 0.795609 3 1.55874 2.683901 2.12132 2.12132 
C 2.683901 1.55874 3 0.795609 3 0 
C 3 -0.795609 2.683901 -1.55874 2.12132 -2.12132 
C 1.55874 -2.683901 0.795609 -3 0 -3 
C -0.795609 -3 -1.55874 -2.683901 -2.12132 -2.12132 
C -2.683901 -1.55874 -3 -0.795609 -3 0 
C -3 0.795609 -2.683901 1.55874 -2.12132 2.12132 
C -1.55874 2.683901 -0.795609 3 0 3 
z
" style="stroke: #fcce25"/>
    </defs>
    <g clip-path="url(#pe9a7923f20)">
     <use xlink:href="#mb37d2cd404" x="439.425329" y="188.150831" style="fill: #fcce25; stroke: #fcce25"/>
    </g>
   </g>
   <g id="line2d_24">
    <path d="M 435.521159 246.707969 
L 435.521159 19.751719 
" clip-path="url(#pe9a7923f20)" style="fill: none; stroke-dasharray: 5.55,2.4; stroke-dashoffset: 0; stroke: #fcce25; stroke-opacity: 0.4; stroke-width: 1.5"/>
   </g>
   <g id="patch_3">
    <path d="M 35.34375 246.707969 
L 35.34375 19.751719 
" style="fill: none; stroke: #000000; stroke-linejoin: miter; stroke-linecap: square"/>
   </g>
   <g id="patch_4">
    <path d="M 35.34375 246.707969 
L 593.640038 246.707969 
" style="fill: none; stroke: #000000; stroke-linejoin: miter; stroke-linecap: square"/>
   </g>
   <g id="text_18">
    <!--  $\alpha$=1.000 -->
    <g style="fill: #0d0887" transform="translate(193.462629 28.291818)">
     <text>
      <tspan style="font: 700 9px 'Arial'" x="0 8.433105 13.688965 18.694336 21.194824 26.200195 31.205566" y="-0.53125"> =1.000</tspan>
      <tspan style="font: oblique 9px 'DejaVu Sans'" x="2.500488" y="-0.53125">α</tspan>
     </text>
    </g>
   </g>
   <g id="text_19">
    <!--  $\alpha$=0.496 -->
    <g style="fill: #8f0da4" transform="translate(275.450195 130.234403)">
     <text>
      <tspan style="font: 700 9px 'Arial'" x="0 8.433105 13.688965 18.694336 21.194824 26.200195 31.205566" y="-0.53125"> =0.496</tspan>
      <tspan style="font: oblique 9px 'DejaVu Sans'" x="2.500488" y="-0.53125">α</tspan>
     </text>
    </g>
   </g>
   <g id="text_20">
    <!--  $\alpha$=0.333 -->
    <g style="fill: #e16462" transform="translate(357.437762 163.036271)">
     <text>
      <tspan style="font: 700 9px 'Arial'" x="0 8.433105 13.688965 18.694336 21.194824 26.200195 31.205566" y="-0.53125"> =0.333</tspan>
      <tspan style="font: oblique 9px 'DejaVu Sans'" x="2.500488" y="-0.53125">α</tspan>
     </text>
    </g>
   </g>
   <g id="text_21">
    <!--  $\alpha$=0.218 -->
    <g style="fill: #fcce25" transform="translate(439.425329 186.374737)">
     <text>
      <tspan style="font: 700 9px 'Arial'" x="0 8.433105 13.688965 18.694336 21.194824 26.200195 31.205566" y="-0.53125"> =0.218</tspan>
      <tspan style="font: oblique 9px 'DejaVu Sans'" x="2.500488" y="-0.53125">α</tspan>
     </text>
    </g>
   </g>
   <g id="text_22">
    <text style="font: 9px 'Arial', 'Helvetica', 'DejaVu Sans', 'Liberation Sans', 'SimHei', 'Microsoft YaHei', sans-serif; text-anchor: middle" x="314.491894" y="13.751719" transform="rotate(-0 314.491894 13.751719)">Local Peak Extraction (2D) | Steady x1 4000 s= 30 n= 4</text>
   </g>
   <g id="legend_1">
    <g id="line2d_25">
     <path d="M 606.423 29.975469 
L 614.423 29.975469 
L 622.423 29.975469 
" style="fill: none; stroke: #000000; stroke-width: 1.2; stroke-linecap: square"/>
    </g>
    <g id="text_23">
     <text style="font: 8px 'Arial', 'Helvetica', 'DejaVu Sans', 'Liberation Sans', 'SimHei', 'Microsoft YaHei', sans-serif; text-anchor: start" x="628.823" y="32.775469" transform="rotate(-0 628.823 32.775469)">2D Cepstrum Profile</text>
    </g>
    <g id="line2d_26">
     <g>
      <use xlink:href="#m5e4cc26a15" x="614.423" y="41.389219" style="fill: #0d0887; stroke: #0d0887"/>
     </g>
    </g>
    <g id="text_24">
     <text style="font: 8px 'Arial', 'Helvetica', 'DejaVu Sans', 'Liberation Sans', 'SimHei', 'Microsoft YaHei', sans-serif; text-anchor: start" x="628.823" y="44.189219" transform="rotate(-0 628.823 44.189219)">Frac 1 (3999.4m)</text>
    </g>
    <g id="line2d_27">
     <g>
      <use xlink:href="#ma424f4dd40" x="614.423" y="52.896719" style="fill: #8f0da4; stroke: #8f0da4"/>
     </g>
    </g>
    <g id="text_25">
     <text style="font: 8px 'Arial', 'Helvetica', 'DejaVu Sans', 'Liberation Sans', 'SimHei', 'Microsoft YaHei', sans-serif; text-anchor: start" x="628.823" y="55.696719" transform="rotate(-0 628.823 55.696719)">Frac 2 (4029.9m)</text>
    </g>
    <g id="line2d_28">
     <g>
      <use xlink:href="#m8ab2f11ffe" x="614.423" y="64.404219" style="fill: #e16462; stroke: #e16462"/>
     </g>
    </g>
    <g id="text_26">
     <text style="font: 8px 'Arial', 'Helvetica', 'DejaVu Sans', 'Liberation Sans', 'SimHei', 'Microsoft YaHei', sans-serif; text-anchor: start" x="628.823" y="67.204219" transform="rotate(-0 628.823 67.204219)">Frac 3 (4060.3m)</text>
    </g>
    <g id="line2d_29">
     <g>
      <use xlink:href="#mb37d2cd404" x="614.423" y="75.911719" style="fill: #fcce25; stroke: #fcce25"/>
     </g>
    </g>
    <g id="text_27">
     <text style="font: 8px 'Arial', 'Helvetica', 'DejaVu Sans', 'Liberation Sans', 'SimHei', 'Microsoft YaHei', sans-serif; text-anchor: start" x="628.823" y="78.711719" transform="rotate(-0 628.823 78.711719)">Frac 4 (4089.3m)</text>
    </g>
   </g>
  </g>
 </g>
 <defs>
  <clipPath id="pe9a7923f20">
   <rect x="35.34375" y="19.751719" width="558.296287" height="226.95625"/>
  </clipPath>
 </defs>
</svg>
